<svg width="563" height="441" viewBox="0 0 563 441" fill="none" xmlns="http://www.w3.org/2000/svg">
    <g clip-path="url(#clip0)" filter="url(#filter0_d)">
        <path d="M533 0L30 0C18.9543 0 10 8.95432 10 20L10 391C10 402.046 18.9543 411 30 411L533 411C544.046 411 553 402.046 553 391V20C553 8.9543 544.046 0 533 0Z" fill="#F4F4FA"/>
        <path d="M507.437 99L55.5635 99C50.2817 99 46 102.595 46 107.029L46 371.971C46 376.406 50.2817 380 55.5635 380H507.437C512.718 380 517 376.406 517 371.971V107.029C517 102.595 512.718 99 507.437 99Z" fill="white"/>
        <path d="M495.54 155H67.4603C62.2355 155 58 158.211 58 162.172V173.828C58 177.789 62.2355 181 67.4603 181H495.54C500.764 181 505 177.789 505 173.828V162.172C505 158.211 500.764 155 495.54 155Z" fill="#EAEAF0"/>
        <path d="M495.54 213H67.4603C62.2355 213 58 216.211 58 220.172V231.828C58 235.789 62.2355 239 67.4603 239H495.54C500.764 239 505 235.789 505 231.828V220.172C505 216.211 500.764 213 495.54 213Z" fill="#EAEAF0"/>
        <path d="M495.54 269H67.4603C62.2355 269 58 272.211 58 276.172V287.828C58 291.789 62.2355 295 67.4603 295H495.54C500.764 295 505 291.789 505 287.828V276.172C505 272.211 500.764 269 495.54 269Z" fill="#EAEAF0"/>
        <path d="M495.54 325H67.4603C62.2355 325 58 328.211 58 332.172V343.828C58 347.789 62.2355 351 67.4603 351H495.54C500.764 351 505 347.789 505 343.828V332.172C505 328.211 500.764 325 495.54 325Z" fill="#EAEAF0"/>
        <path d="M505.085 10L457.08 10C450.304 10 444.811 15.1613 444.811 21.528C444.811 27.8948 450.304 33.0561 457.08 33.0561H505.085C511.861 33.0561 517.354 27.8948 517.354 21.528C517.354 15.1613 511.861 10 505.085 10Z" fill="#632FF5"/>
        <path d="M179.28 196H74.7339C72.6718 196 71.0001 197.571 71.0001 199.509C71.0001 201.446 72.6718 203.017 74.7339 203.017H179.28C181.342 203.017 183.014 201.446 183.014 199.509C183.014 197.571 181.342 196 179.28 196Z" fill="#838383"/>
        <path d="M344.7 195H224.3C221.925 195 220 196.567 220 198.5C220 200.433 221.925 202 224.3 202H344.7C347.075 202 349 200.433 349 198.5C349 196.567 347.075 195 344.7 195Z" fill="#838383"/>
        <path d="M167.545 250.132H74.7338C72.6717 250.132 71 251.702 71 253.64C71 255.578 72.6717 257.149 74.7338 257.149H167.545C169.607 257.149 171.279 255.578 171.279 253.64C171.279 251.702 169.607 250.132 167.545 250.132Z" fill="#838383"/>
        <path d="M331.681 250H224.319C221.934 250 220 251.567 220 253.5C220 255.433 221.934 257 224.319 257H331.681C334.066 257 336 255.433 336 253.5C336 251.567 334.066 250 331.681 250Z" fill="#838383"/>
        <path d="M157.944 279.202H74.7338C72.6717 279.202 71 280.773 71 282.711C71 284.649 72.6717 286.22 74.7338 286.22H157.944C160.006 286.22 161.678 284.649 161.678 282.711C161.678 280.773 160.006 279.202 157.944 279.202Z" fill="#838383"/>
        <path d="M319.718 279H224.282C221.917 279 220 280.567 220 282.5C220 284.433 221.917 286 224.282 286H319.718C322.083 286 324 284.433 324 282.5C324 280.567 322.083 279 319.718 279Z" fill="#838383"/>
        <path d="M169.679 306.268H74.7338C72.6717 306.268 71 307.839 71 309.777C71 311.715 72.6717 313.285 74.7338 313.285H169.679C171.741 313.285 173.413 311.715 173.413 309.777C173.413 307.839 171.741 306.268 169.679 306.268Z" fill="#838383"/>
        <path d="M333.698 306H224.302C221.926 306 220 307.567 220 309.5C220 311.433 221.926 313 224.302 313H333.698C336.074 313 338 311.433 338 309.5C338 307.567 336.074 306 333.698 306Z" fill="#838383"/>
        <path d="M113.138 335.339H74.7338C72.6717 335.339 71 336.91 71 338.848C71 340.785 72.6717 342.356 74.7338 342.356H113.138C115.201 342.356 116.872 340.785 116.872 338.848C116.872 336.91 115.201 335.339 113.138 335.339Z" fill="#838383"/>
        <path d="M268.686 335H224.314C221.931 335 220 336.567 220 338.5C220 340.433 221.931 342 224.314 342H268.686C271.069 342 273 340.433 273 338.5C273 336.567 271.069 335 268.686 335Z" fill="#838383"/>
        <path d="M132.341 362.405H74.7339C72.6718 362.405 71.0001 363.976 71.0001 365.913C71.0001 367.851 72.6718 369.422 74.7339 369.422H132.341C134.403 369.422 136.075 367.851 136.075 365.913C136.075 363.976 134.403 362.405 132.341 362.405Z" fill="#838383"/>
        <path d="M290.697 362H224.303C221.927 362 220 363.567 220 365.5C220 367.433 221.927 369 224.303 369H290.697C293.073 369 295 367.433 295 365.5C295 363.567 293.073 362 290.697 362Z" fill="#838383"/>
        <path d="M154.744 223.066H74.7339C72.6718 223.066 71.0001 224.637 71.0001 226.574C71.0001 228.512 72.6718 230.083 74.7339 230.083H154.744C156.806 230.083 158.478 228.512 158.478 226.574C158.478 224.637 156.806 223.066 154.744 223.066Z" fill="#838383"/>
        <path d="M315.732 223H224.268C221.911 223 220 224.567 220 226.5C220 228.433 221.911 230 224.268 230H315.732C318.089 230 320 228.433 320 226.5C320 224.567 318.089 223 315.732 223Z" fill="#838383"/>
        <path d="M133.477 13L54.5344 13C49.821 13 46 16.5905 46 21.0195V22.0219C46 26.451 49.821 30.0415 54.5344 30.0415L133.477 30.0415C138.191 30.0415 142.012 26.451 142.012 22.0219V21.0195C142.012 16.5905 138.191 13 133.477 13Z" fill="#838383"/>
        <path d="M218.821 36.0561L54.5344 36.0561C49.821 36.0561 46 39.6465 46 44.0756V45.078C46 49.5071 49.821 53.0975 54.5344 53.0975L218.821 53.0975C223.535 53.0975 227.356 49.5071 227.356 45.078V44.0756C227.356 39.6465 223.535 36.0561 218.821 36.0561Z" fill="#838383"/>
        <path d="M268.423 165H224.471C221.973 165 219.947 166.567 219.947 168.5C219.947 170.433 221.973 172 224.471 172H268.423C270.921 172 272.947 170.433 272.947 168.5C272.947 166.567 270.921 165 268.423 165Z" fill="#838383"/>
        <path d="M111.005 165H74.7338C72.6717 165 71 166.571 71 168.509C71 170.446 72.6717 172.017 74.7338 172.017H111.005C113.067 172.017 114.739 170.446 114.739 168.509C114.739 166.571 113.067 165 111.005 165Z" fill="#838383"/>
        <path d="M449.154 165H393.681C391.619 165 389.947 166.571 389.947 168.509C389.947 170.446 391.619 172.017 393.681 172.017H449.154C451.216 172.017 452.888 170.446 452.888 168.509C452.888 166.571 451.216 165 449.154 165Z" fill="#838383"/>
        <path d="M483.524 187H394.476C388.69 187 384 190.393 384 194.579V197.421C384 201.607 388.69 205 394.476 205H483.524C489.31 205 494 201.607 494 197.421V194.579C494 190.393 489.31 187 483.524 187Z" fill="#F52F7B"/>
        <path d="M483.524 217H394.476C388.69 217 384 220.393 384 224.579V227.421C384 231.607 388.69 235 394.476 235H483.524C489.31 235 494 231.607 494 227.421V224.579C494 220.393 489.31 217 483.524 217Z" fill="#C78B3E"/>
        <path d="M483.524 244H394.476C388.69 244 384 247.393 384 251.579V254.421C384 258.607 388.69 262 394.476 262H483.524C489.31 262 494 258.607 494 254.421V251.579C494 247.393 489.31 244 483.524 244Z" fill="#F52F7B"/>
        <path d="M483.524 272H394.476C388.69 272 384 275.393 384 279.579V282.421C384 286.607 388.69 290 394.476 290H483.524C489.31 290 494 286.607 494 282.421V279.579C494 275.393 489.31 272 483.524 272Z" fill="#F52F7B"/>
        <path d="M483.524 300H394.476C388.69 300 384 303.393 384 307.579V310.421C384 314.607 388.69 318 394.476 318H483.524C489.31 318 494 314.607 494 310.421V307.579C494 303.393 489.31 300 483.524 300Z" fill="#C78B3E"/>
        <path d="M483.524 329H394.476C388.69 329 384 332.393 384 336.579V339.421C384 343.607 388.69 347 394.476 347H483.524C489.31 347 494 343.607 494 339.421V336.579C494 332.393 489.31 329 483.524 329Z" fill="#63B79F"/>
        <path d="M483.524 356H394.476C388.69 356 384 359.393 384 363.579V366.421C384 370.607 388.69 374 394.476 374H483.524C489.31 374 494 370.607 494 366.421V363.579C494 359.393 489.31 356 483.524 356Z" fill="#63B79F"/>
        <path d="M364.268 33.0561C371.044 33.0561 376.536 27.8948 376.536 21.5281C376.536 15.1613 371.044 10 364.268 10C357.493 10 352 15.1613 352 21.5281C352 27.8948 357.493 33.0561 364.268 33.0561Z" fill="#838383"/>
        <path d="M394.139 33.0561C400.914 33.0561 406.407 27.8948 406.407 21.5281C406.407 15.1613 400.914 10 394.139 10C387.363 10 381.87 15.1613 381.87 21.5281C381.87 27.8948 387.363 33.0561 394.139 33.0561Z" fill="#838383"/>
        <path d="M424.009 33.0561C430.784 33.0561 436.277 27.8948 436.277 21.528C436.277 15.1613 430.784 10 424.009 10C417.233 10 411.741 15.1613 411.741 21.528C411.741 27.8948 417.233 33.0561 424.009 33.0561Z" fill="#838383"/>
        <path d="M119.341 118H71.335C63.9703 118 58 123.61 58 130.53C58 137.451 63.9703 143.061 71.335 143.061H119.341C126.706 143.061 132.676 137.451 132.676 130.53C132.676 123.61 126.706 118 119.341 118Z" fill="#632FF5"/>
        <path d="M407.341 118H359.335C351.97 118 346 123.61 346 130.53C346 137.451 351.97 143.061 359.335 143.061H407.341C414.706 143.061 420.676 137.451 420.676 130.53C420.676 123.61 414.706 118 407.341 118Z" fill="#632FF5"/>
        <path d="M491.618 118H443.612C436.247 118 430.277 123.61 430.277 130.531C430.277 137.451 436.247 143.061 443.612 143.061H491.618C498.983 143.061 504.953 137.451 504.953 130.531C504.953 123.61 498.983 118 491.618 118Z" fill="#632FF5"/>
        <path d="M70.8016 143.061C77.8717 143.061 83.6031 137.451 83.6031 130.53C83.6031 123.61 77.8717 118 70.8016 118C63.7315 118 58 123.61 58 130.53C58 137.451 63.7315 143.061 70.8016 143.061Z" fill="#4329B7"/>
        <path d="M358.802 143.061C365.872 143.061 371.603 137.451 371.603 130.53C371.603 123.61 365.872 118 358.802 118C351.731 118 346 123.61 346 130.53C346 137.451 351.731 143.061 358.802 143.061Z" fill="#4329B7"/>
        <path d="M443.079 143.061C450.149 143.061 455.88 137.451 455.88 130.531C455.88 123.61 450.149 118 443.079 118C436.008 118 430.277 123.61 430.277 130.531C430.277 137.451 436.008 143.061 443.079 143.061Z" fill="#4329B7"/>
    </g>
    <defs>
        <filter id="filter0_d" x="0" y="0" width="563" height="441" filterUnits="userSpaceOnUse" color-interpolation-filters="sRGB">
            <feFlood flood-opacity="0" result="BackgroundImageFix"/>
            <feColorMatrix in="SourceAlpha" type="matrix" values="0 0 0 0 0 0 0 0 0 0 0 0 0 0 0 0 0 0 127 0"/>
            <feOffset dy="20"/>
            <feGaussianBlur stdDeviation="5"/>
            <feColorMatrix type="matrix" values="0 0 0 0 0 0 0 0 0 0 0 0 0 0 0 0 0 0 0.5 0"/>
            <feBlend mode="normal" in2="BackgroundImageFix" result="effect1_dropShadow"/>
            <feBlend mode="normal" in="SourceGraphic" in2="effect1_dropShadow" result="shape"/>
        </filter>
        <!-- <clipPath id="clip0">
            <rect width="543" height="411" fill="white" transform="translate(10)"/>
        </clipPath> -->
    </defs>
</svg>
