<svg xmlns="http://www.w3.org/2000/svg" width="80" height="80" viewBox="0 0 128.528 168.734">
  <g id="insurance" transform="translate(-61)">
    <path id="Trazado_62" data-name="Trazado 62" d="M188.08,34.4,155.124,1.448A4.943,4.943,0,0,0,151.629,0h-72.5A18.146,18.146,0,0,0,61,18.126V150.608a18.146,18.146,0,0,0,18.126,18.126H171.4a18.146,18.146,0,0,0,18.126-18.126V37.9A4.943,4.943,0,0,0,188.08,34.4ZM156.572,16.878,172.65,32.956H156.572Zm14.83,141.97H79.126a8.248,8.248,0,0,1-8.239-8.239V18.126a8.248,8.248,0,0,1,8.239-8.239h67.56V37.9a4.944,4.944,0,0,0,4.943,4.943h28.013V150.608A8.248,8.248,0,0,1,171.4,158.847Z" fill="#f60"/>
    <path id="Trazado_63" data-name="Trazado 63" d="M211.855,175.182a16.3,16.3,0,0,1-14.656-9.058l-.7-1.392A4.943,4.943,0,0,0,192.082,162H165.717a4.943,4.943,0,0,0-4.422,2.733l-.7,1.391a16.3,16.3,0,0,1-14.656,9.058A4.944,4.944,0,0,0,141,180.126v28.209a51.187,51.187,0,0,0,36.479,49.029,4.94,4.94,0,0,0,2.841,0A51.187,51.187,0,0,0,216.8,208.335V180.126A4.943,4.943,0,0,0,211.855,175.182Zm-4.943,33.153A41.032,41.032,0,0,1,178.9,247.44a41.032,41.032,0,0,1-28.012-39.105V184.608a26.082,26.082,0,0,0,17.837-12.722h20.35a26.083,26.083,0,0,0,17.837,12.722Z" transform="translate(-53.635 -108.611)" fill="#f60"/>
    <path id="Trazado_64" data-name="Trazado 64" d="M227.985,265.163,212.838,280.31l-5.826-5.826a4.943,4.943,0,1,0-6.991,6.991l9.321,9.321a4.942,4.942,0,0,0,6.991,0l18.642-18.643a4.943,4.943,0,1,0-6.99-6.991Z" transform="translate(-92.235 -176.806)" fill="#f60"/>
  </g>
</svg>
