<svg xmlns="http://www.w3.org/2000/svg" width="168.722" height="168.734" viewBox="0 0 168.722 168.734">
  <g id="contract" transform="translate(-0.018)">
    <g id="Grupo_35" data-name="Grupo 35" transform="translate(0.018)">
      <g id="Grupo_34" data-name="Grupo 34">
        <path id="Trazado_65" data-name="Trazado 65" d="M164.393,53.1a14.848,14.848,0,0,0-20.975,0L128.546,67.987V28.812A14.732,14.732,0,0,0,124.2,18.326L110.22,4.344A14.732,14.732,0,0,0,99.734,0H14.848A14.847,14.847,0,0,0,.018,14.83V153.9a14.847,14.847,0,0,0,14.83,14.83h98.868a14.847,14.847,0,0,0,14.83-14.83V109.951l35.847-35.877A14.821,14.821,0,0,0,164.393,53.1ZM98.886,9.887a5.4,5.4,0,0,1,4.344,1.448l13.982,13.982a5.4,5.4,0,0,1,1.448,4.344H98.886ZM118.659,153.9a4.949,4.949,0,0,1-4.943,4.943H14.848A4.949,4.949,0,0,1,9.9,153.9V14.83a4.949,4.949,0,0,1,4.943-4.943H89V34.6a4.943,4.943,0,0,0,4.943,4.943h24.717V77.882l-14.585,14.6-6.988,6.988a4.943,4.943,0,0,0-1.194,1.932L88.9,122.373a4.944,4.944,0,0,0,6.253,6.253l20.973-6.991a4.939,4.939,0,0,0,1.932-1.194l.6-.6V153.9Zm-11.086-50.941,6.991,6.991-2.67,2.67-10.486,3.5,3.5-10.487Zm13.981,0-6.991-6.991,23.763-23.783,6.991,6.991ZM157.4,67.084l-5.1,5.1-6.991-6.991,5.1-5.1a4.943,4.943,0,1,1,6.989,6.993Z" transform="translate(-0.018 0)" fill="#f89321"/>
      </g>
    </g>
    <g id="Grupo_37" data-name="Grupo 37" transform="translate(19.792 49.434)">
      <g id="Grupo_36" data-name="Grupo 36">
        <path id="Trazado_66" data-name="Trazado 66" d="M134.169,150H64.961a4.943,4.943,0,1,0,0,9.887h69.207a4.943,4.943,0,1,0,0-9.887Z" transform="translate(-60.018 -150)" fill="#f89321"/>
      </g>
    </g>
    <g id="Grupo_39" data-name="Grupo 39" transform="translate(19.792 69.207)">
      <g id="Grupo_38" data-name="Grupo 38">
        <path id="Trazado_67" data-name="Trazado 67" d="M114.4,210H64.961a4.943,4.943,0,0,0,0,9.887H114.4a4.943,4.943,0,0,0,0-9.887Z" transform="translate(-60.018 -210)" fill="#f89321"/>
      </g>
    </g>
    <g id="Grupo_41" data-name="Grupo 41" transform="translate(19.792 88.981)">
      <g id="Grupo_40" data-name="Grupo 40">
        <path id="Trazado_68" data-name="Trazado 68" d="M114.4,270H64.961a4.943,4.943,0,0,0,0,9.887H114.4a4.943,4.943,0,0,0,0-9.887Z" transform="translate(-60.018 -270)" fill="#f89321"/>
      </g>
    </g>
    <g id="Grupo_43" data-name="Grupo 43" transform="translate(19.792 108.754)">
      <g id="Grupo_42" data-name="Grupo 42">
        <path id="Trazado_69" data-name="Trazado 69" d="M114.4,330H64.961a4.943,4.943,0,0,0,0,9.887H114.4a4.943,4.943,0,0,0,0-9.887Z" transform="translate(-60.018 -330)" fill="#f89321"/>
      </g>
    </g>
    <g id="Grupo_45" data-name="Grupo 45" transform="translate(59.339 139.074)">
      <g id="Grupo_44" data-name="Grupo 44">
        <path id="Trazado_70" data-name="Trazado 70" d="M214.622,422h-29.66a4.943,4.943,0,1,0,0,9.887h29.66a4.943,4.943,0,1,0,0-9.887Z" transform="translate(-180.018 -422)" fill="#f89321"/>
      </g>
    </g>
  </g>
</svg>
