<svg xmlns="http://www.w3.org/2000/svg" width="16" height="16" viewBox="0 0 35.145 24.711">
  <g id="mail" transform="translate(0 -76)">
    <g id="Grupo_11" data-name="Grupo 11" transform="translate(24.177 77.766)">
      <g id="Grupo_10" data-name="Grupo 10" transform="translate(0 0)">
        <path id="Trazado_33" data-name="Trazado 33" d="M362.87,101.721l-10.659,10.59L362.87,122.9a3.054,3.054,0,0,0,.31-1.323V103.044A3.053,3.053,0,0,0,362.87,101.721Z" transform="translate(-352.211 -101.721)"/>
      </g>
    </g>
    <g id="Grupo_13" data-name="Grupo 13" transform="translate(1.766 76)">
      <g id="Grupo_12" data-name="Grupo 12" transform="translate(0 0)">
        <path id="Trazado_34" data-name="Trazado 34" d="M56.012,76H27.044a3.053,3.053,0,0,0-1.323.31L39.344,89.864a3.091,3.091,0,0,0,4.368,0L57.335,76.31A3.053,3.053,0,0,0,56.012,76Z" transform="translate(-25.721 -76)"/>
      </g>
    </g>
    <g id="Grupo_15" data-name="Grupo 15" transform="translate(0 77.766)">
      <g id="Grupo_14" data-name="Grupo 14" transform="translate(0 0)">
        <path id="Trazado_35" data-name="Trazado 35" d="M.31,101.721A3.053,3.053,0,0,0,0,103.044v18.534A3.053,3.053,0,0,0,.31,122.9l10.659-10.59Z" transform="translate(0 -101.721)"/>
      </g>
    </g>
    <g id="Grupo_17" data-name="Grupo 17" transform="translate(1.766 89.812)">
      <g id="Grupo_16" data-name="Grupo 16">
        <path id="Trazado_36" data-name="Trazado 36" d="M46.676,277.211l-1.508,1.508a5.154,5.154,0,0,1-7.28,0l-1.508-1.508L25.721,287.8a3.053,3.053,0,0,0,1.323.31H56.012a3.053,3.053,0,0,0,1.323-.31Z" transform="translate(-25.721 -277.211)"/>
      </g>
    </g>
  </g>
</svg>
