<svg xmlns="http://www.w3.org/2000/svg" width="174.184" height="153.743" viewBox="0 0 174.184 153.743">
  <g id="crm" transform="translate(0 -30.041)">
    <g id="Grupo_19" data-name="Grupo 19" transform="translate(0 30.041)">
      <g id="Grupo_18" data-name="Grupo 18">
        <path id="Trazado_37" data-name="Trazado 37" d="M174.184,159.257V30.041H0V159.257H57.232V173.12h-19.2v10.664h98.112V173.12h-19.2V159.257h57.231ZM10.664,40.705H163.519v87.447H10.664ZM106.287,173.12H67.9V159.257h38.391ZM10.664,148.592v-9.775H163.519v9.776H10.664Z" transform="translate(0 -30.041)" fill="#773090"/>
      </g>
    </g>
    <g id="Grupo_21" data-name="Grupo 21" transform="translate(28.616 56.613)">
      <g id="Grupo_20" data-name="Grupo 20">
        <path id="Trazado_38" data-name="Trazado 38" d="M116.572,139.642a17.6,17.6,0,1,0-21.546,0,21.691,21.691,0,0,0-10.911,18.806v5.332h43.368v-5.332A21.692,21.692,0,0,0,116.572,139.642ZM105.8,118.812a6.932,6.932,0,1,1-6.932,6.932A6.94,6.94,0,0,1,105.8,118.812Zm-9.642,34.3a11.017,11.017,0,0,1,19.284,0Z" transform="translate(-84.114 -108.148)" fill="#773090"/>
      </g>
    </g>
    <g id="Grupo_23" data-name="Grupo 23" transform="translate(87.092 56.613)">
      <g id="Grupo_22" data-name="Grupo 22">
        <rect id="Rectángulo_46" data-name="Rectángulo 46" width="12.264" height="10.664" fill="#773090"/>
      </g>
    </g>
    <g id="Grupo_25" data-name="Grupo 25" transform="translate(107.532 56.613)">
      <g id="Grupo_24" data-name="Grupo 24">
        <rect id="Rectángulo_47" data-name="Rectángulo 47" width="36.792" height="10.664" fill="#773090"/>
      </g>
    </g>
    <g id="Grupo_27" data-name="Grupo 27" transform="translate(87.092 79.097)">
      <g id="Grupo_26" data-name="Grupo 26">
        <rect id="Rectángulo_48" data-name="Rectángulo 48" width="12.264" height="10.664" fill="#773090"/>
      </g>
    </g>
    <g id="Grupo_29" data-name="Grupo 29" transform="translate(107.532 79.097)">
      <g id="Grupo_28" data-name="Grupo 28">
        <rect id="Rectángulo_49" data-name="Rectángulo 49" width="36.792" height="10.664" fill="#773090"/>
      </g>
    </g>
    <g id="Grupo_31" data-name="Grupo 31" transform="translate(87.092 101.581)">
      <g id="Grupo_30" data-name="Grupo 30">
        <rect id="Rectángulo_50" data-name="Rectángulo 50" width="12.264" height="10.664" fill="#773090"/>
      </g>
    </g>
    <g id="Grupo_33" data-name="Grupo 33" transform="translate(107.532 101.581)">
      <g id="Grupo_32" data-name="Grupo 32">
        <rect id="Rectángulo_51" data-name="Rectángulo 51" width="36.792" height="10.664" fill="#773090"/>
      </g>
    </g>
  </g>
</svg>
