<svg id="balance" xmlns="http://www.w3.org/2000/svg" width="164.487" height="164.487" viewBox="0 0 164.487 164.487">
  <path id="Trazado_60" data-name="Trazado 60" d="M207.741,465.457A14.457,14.457,0,0,0,193.284,451H135.457A14.457,14.457,0,0,0,121,465.457v5.14h86.741Z" transform="translate(-82.127 -306.11)" fill="#ea4c02"/>
  <path id="Trazado_61" data-name="Trazado 61" d="M154.849,38.873V29.235H95.813a14.438,14.438,0,0,0-8.75-8.75V0H77.424V20.485a14.438,14.438,0,0,0-8.75,8.75H9.638v9.638H21.687L0,91.881a24.123,24.123,0,0,0,24.095,24.095h9.638A24.123,24.123,0,0,0,57.827,91.881L36.043,38.873H68.675a14.438,14.438,0,0,0,8.75,8.75V116.5a24.139,24.139,0,0,0-18.788,18.748h47.214A24.139,24.139,0,0,0,87.063,116.5V47.623a14.438,14.438,0,0,0,8.75-8.75h32.533L106.659,91.881a24.123,24.123,0,0,0,24.095,24.095h9.638a24.123,24.123,0,0,0,24.095-24.095L142.7,38.873ZM45.779,87.062H12.049L28.914,46.581Zm106.659,0h-33.73l16.865-40.481Z" fill="#ea4c02"/>
</svg>
