<svg xmlns="http://www.w3.org/2000/svg" width="93.241" height="93.241" viewBox="0 0 93.241 93.241">
  <path id="linkedin" d="M46.621,0A46.621,46.621,0,1,0,93.241,46.621,46.626,46.626,0,0,0,46.621,0ZM33.073,70.477H21.719V36.318H33.073ZM27.4,31.653h-.074c-3.81,0-6.274-2.623-6.274-5.9,0-3.352,2.54-5.9,6.424-5.9s6.274,2.55,6.348,5.9c0,3.278-2.464,5.9-6.424,5.9ZM74.014,70.477H62.661V52.2c0-4.593-1.644-7.725-5.752-7.725a6.216,6.216,0,0,0-5.825,4.152A7.775,7.775,0,0,0,50.71,51.4V70.477H39.357s.149-30.955,0-34.159H50.71v4.837a11.272,11.272,0,0,1,10.232-5.638c7.47,0,13.071,4.882,13.071,15.374Zm0,0" fill="#5c2579"/>
</svg>
