<svg xmlns="http://www.w3.org/2000/svg" width="156" height="156" viewBox="0 0 156 156">
  <path id="Icon_ionic-logo-whatsapp" data-name="Icon ionic-logo-whatsapp" d="M81.664,2.25C39.371,2.25,5.082,36.271,5.082,78.241a75.206,75.206,0,0,0,10.989,39.239L2.25,158.25l42.4-13.47a76.739,76.739,0,0,0,37.014,9.453c42.3,0,76.586-34.026,76.586-75.992S123.963,2.25,81.664,2.25ZM119.746,107.1c-1.8,4.467-9.95,8.543-13.545,8.73s-3.694,2.784-23.275-5.723S51.569,80.913,50.64,79.581,43.056,68.77,43.415,59.226A21.7,21.7,0,0,1,50.868,43.3a7.5,7.5,0,0,1,5.3-2.233c1.542-.025,2.541-.046,3.682,0s2.853-.239,4.335,3.7,5.029,13.634,5.483,14.621a3.548,3.548,0,0,1,.036,3.4,13.3,13.3,0,0,1-2.076,3.163c-1.022,1.1-2.15,2.452-3.062,3.29-1.017.928-2.079,1.94-1.01,3.924A58.6,58.6,0,0,0,73.93,87.009,53.433,53.433,0,0,0,89.285,97.217c1.92,1.046,3.066.93,4.257-.324s5.1-5.483,6.475-7.371,2.668-1.523,4.437-.811,11.2,5.765,13.118,6.808,3.2,1.577,3.66,2.4S121.547,102.634,119.746,107.1Z" transform="translate(-2.25 -2.25)" fill="#4cc35c"/>
</svg>
