<svg xmlns="http://www.w3.org/2000/svg" width="80" height="80" viewBox="0 0 175.533 175.533">
  <g id="XMLID_1336_" transform="translate(0)">
    <path id="XMLID_1498_" d="M156.944,97.9a79.884,79.884,0,0,0,2.132-18.36A79.539,79.539,0,0,0,23.3,23.3,79.538,79.538,0,0,0,79.538,159.077,79.9,79.9,0,0,0,97.9,156.944,42.5,42.5,0,1,0,156.944,97.9Zm-23.923-7.389A42.373,42.373,0,0,0,120.489,92.4c.258-3.112.422-6.262.491-9.428h31.151a72.937,72.937,0,0,1-1.432,11.4A42.262,42.262,0,0,0,133.021,90.509ZM6.94,82.967H38.094a139.353,139.353,0,0,0,5.4,36.33,127.009,127.009,0,0,0-19.218,7.4A72.36,72.36,0,0,1,6.94,82.967ZM24.277,32.384a127.008,127.008,0,0,0,19.218,7.4,139.358,139.358,0,0,0-5.4,36.331H6.94A72.36,72.36,0,0,1,24.277,32.384ZM152.137,76.11H120.983a139.353,139.353,0,0,0-5.4-36.33,127.008,127.008,0,0,0,19.218-7.4A72.36,72.36,0,0,1,152.137,76.11ZM92.715,146.544a21.625,21.625,0,0,1-9.748,5.3V121.074c3.037.085,6.074.28,9.086.589a42.564,42.564,0,0,0,.663,24.881Zm-16.605,5.3c-7.55-1.626-14.7-8.592-20.414-20.026a82.745,82.745,0,0,1-3.371-7.749,120.832,120.832,0,0,1,23.785-3Zm0-37.637a127.636,127.636,0,0,0-25.991,3.333,132.071,132.071,0,0,1-5.168-34.577H76.11ZM44.952,76.11A132.071,132.071,0,0,1,50.12,41.533,127.612,127.612,0,0,0,76.11,44.865V76.11ZM82.967,7.228c7.55,1.626,14.7,8.592,20.414,20.026A82.743,82.743,0,0,1,106.752,35a120.832,120.832,0,0,1-23.785,3ZM76.11,38.007a120.857,120.857,0,0,1-23.785-3A82.745,82.745,0,0,1,55.7,27.254C61.413,15.819,68.56,8.854,76.11,7.228Zm6.857,6.858a127.637,127.637,0,0,0,25.991-3.333,132.057,132.057,0,0,1,5.168,34.577H82.967Zm30.454-11.6a89.947,89.947,0,0,0-3.907-9.079,59.412,59.412,0,0,0-9.862-14.5,72.7,72.7,0,0,1,30.2,17.445A119.886,119.886,0,0,1,113.421,33.267ZM49.563,24.187a89.873,89.873,0,0,0-3.907,9.079,119.849,119.849,0,0,1-16.428-6.132A72.7,72.7,0,0,1,59.425,9.69,59.412,59.412,0,0,0,49.563,24.187ZM45.656,125.81a89.872,89.872,0,0,0,3.907,9.079,59.411,59.411,0,0,0,9.862,14.5,72.7,72.7,0,0,1-30.2-17.445,119.848,119.848,0,0,1,16.428-6.132Zm48.852-10.776c-3.817-.444-7.679-.717-11.541-.819V82.967h31.155c-.1,4.182-.364,8.332-.8,12.393a42.794,42.794,0,0,0-18.811,19.674Zm38.513,53.642a35.655,35.655,0,1,1,35.655-35.655A35.7,35.7,0,0,1,133.021,168.676Z" transform="translate(0)" fill="#a2a4ae"/>
    <path id="XMLID_1514_" d="M381.1,326.754l-14.527,14.527a5.468,5.468,0,0,0-1.925,0l-4.865-4.864a3.428,3.428,0,1,0-4.848,4.849l4.864,4.864a5.9,5.9,0,1,0,11.622,0L385.95,331.6a3.428,3.428,0,0,0-4.848-4.849Z" transform="translate(-232.591 -214.071)" fill="#a2a4ae"/>
    <path id="XMLID_1515_" d="M381.428,452.689a3.43,3.43,0,1,0,2.424,1A3.453,3.453,0,0,0,381.428,452.689Z" transform="translate(-248.407 -297.49)" fill="#a2a4ae"/>
    <path id="XMLID_1516_" d="M381.428,310.167a3.43,3.43,0,1,0-2.424-1A3.453,3.453,0,0,0,381.428,310.167Z" transform="translate(-248.407 -199.324)" fill="#a2a4ae"/>
    <path id="XMLID_1517_" d="M306.738,378a3.43,3.43,0,1,0,2.424,1A3.453,3.453,0,0,0,306.738,378Z" transform="translate(-199.324 -248.407)" fill="#a2a4ae"/>
    <path id="XMLID_1518_" d="M458.542,379a3.426,3.426,0,1,0,1,2.424A3.454,3.454,0,0,0,458.542,379Z" transform="translate(-297.491 -248.407)" fill="#a2a4ae"/>
  </g>
</svg>
