<svg xmlns="http://www.w3.org/2000/svg" width="75" height="75" viewBox="0 0 184.575 184.574">
  <g id="calendar" transform="translate(-2 -2)">
    <path id="Trazado_7" data-name="Trazado 7" d="M165.394,117.3V32.258a15.147,15.147,0,0,0-15.129-15.129h-6.052V11.077a9.077,9.077,0,1,0-18.155,0v6.052H110.929V11.077a9.077,9.077,0,0,0-18.155,0v6.052H74.619V11.077a9.077,9.077,0,1,0-18.155,0v6.052H41.336V11.077a9.077,9.077,0,1,0-18.155,0v6.052H17.129A15.147,15.147,0,0,0,2,32.258V153.291A15.147,15.147,0,0,0,17.129,168.42H118.867a36.281,36.281,0,1,0,46.526-51.12ZM132.11,11.077a3.026,3.026,0,1,1,6.052,0V29.232a3.026,3.026,0,1,1-6.052,0Zm-33.284,0a3.026,3.026,0,1,1,6.052,0V29.232a3.026,3.026,0,1,1-6.052,0Zm-36.31,0a3.026,3.026,0,1,1,6.052,0V29.232a3.026,3.026,0,1,1-6.052,0Zm-33.284,0a3.026,3.026,0,1,1,6.052,0V29.232a3.026,3.026,0,1,1-6.052,0Zm-12.1,12.1h6.052v6.052a9.077,9.077,0,1,0,18.155,0V23.181H56.465v6.052a9.077,9.077,0,1,0,18.155,0V23.181H92.774v6.052a9.077,9.077,0,0,0,18.155,0V23.181h15.129v6.052a9.077,9.077,0,1,0,18.155,0V23.181h6.052a9.087,9.087,0,0,1,9.077,9.077V47.387H8.052V32.258A9.087,9.087,0,0,1,17.129,23.181Zm0,139.187a9.087,9.087,0,0,1-9.077-9.077V53.439H159.342V115.15a34.553,34.553,0,0,0-15.129-.648V98.826a3.024,3.024,0,0,0-3.026-3.026H123.032a3.024,3.024,0,0,0-3.026,3.026v18.155a3.024,3.024,0,0,0,3.026,3.026h7.2a36.106,36.106,0,0,0-14.163,42.361Zm121.032-48.413h-12.1v-12.1h12.1Zm12.1,66.568a30.258,30.258,0,1,1,30.258-30.258A30.294,30.294,0,0,1,150.265,180.523Z" fill="#a2a4ae"/>
    <path id="Trazado_8" data-name="Trazado 8" d="M65.421,61.994V43H59.369V61.994A5.778,5.778,0,0,0,56.434,68.1L45.375,76.946l3.782,4.728,11.049-8.839a6.031,6.031,0,0,0,5.215-10.84Z" transform="translate(87.87 83.058)" fill="#a2a4ae"/>
    <path id="Trazado_9" data-name="Trazado 9" d="M29.181,22H11.026A3.024,3.024,0,0,0,8,25.026V43.181a3.024,3.024,0,0,0,3.026,3.026H29.181a3.024,3.024,0,0,0,3.026-3.026V25.026A3.024,3.024,0,0,0,29.181,22ZM26.155,40.155h-12.1v-12.1h12.1Z" transform="translate(12.155 40.516)" fill="#a2a4ae"/>
    <path id="Trazado_10" data-name="Trazado 10" d="M40.181,22H22.026A3.024,3.024,0,0,0,19,25.026V43.181a3.024,3.024,0,0,0,3.026,3.026H40.181a3.024,3.024,0,0,0,3.026-3.026V25.026A3.024,3.024,0,0,0,40.181,22ZM37.155,40.155h-12.1v-12.1h12.1Z" transform="translate(34.439 40.516)" fill="#a2a4ae"/>
    <path id="Trazado_11" data-name="Trazado 11" d="M51.181,22H33.026A3.024,3.024,0,0,0,30,25.026V43.181a3.024,3.024,0,0,0,3.026,3.026H51.181a3.024,3.024,0,0,0,3.026-3.026V25.026A3.024,3.024,0,0,0,51.181,22ZM48.155,40.155h-12.1v-12.1h12.1Z" transform="translate(56.723 40.516)" fill="#a2a4ae"/>
    <path id="Trazado_12" data-name="Trazado 12" d="M44.026,46.206H62.181a3.024,3.024,0,0,0,3.026-3.026V25.026A3.024,3.024,0,0,0,62.181,22H44.026A3.024,3.024,0,0,0,41,25.026V43.181A3.024,3.024,0,0,0,44.026,46.206Zm3.026-18.155h12.1v12.1h-12.1Z" transform="translate(79.007 40.516)" fill="#a2a4ae"/>
    <path id="Trazado_13" data-name="Trazado 13" d="M29.181,33H11.026A3.024,3.024,0,0,0,8,36.026V54.181a3.024,3.024,0,0,0,3.026,3.026H29.181a3.024,3.024,0,0,0,3.026-3.026V36.026A3.024,3.024,0,0,0,29.181,33ZM26.155,51.155h-12.1v-12.1h12.1Z" transform="translate(12.155 62.8)" fill="#a2a4ae"/>
    <path id="Trazado_14" data-name="Trazado 14" d="M40.181,33H22.026A3.024,3.024,0,0,0,19,36.026V54.181a3.024,3.024,0,0,0,3.026,3.026H40.181a3.024,3.024,0,0,0,3.026-3.026V36.026A3.024,3.024,0,0,0,40.181,33ZM37.155,51.155h-12.1v-12.1h12.1Z" transform="translate(34.439 62.8)" fill="#a2a4ae"/>
    <path id="Trazado_15" data-name="Trazado 15" d="M51.181,33H33.026A3.024,3.024,0,0,0,30,36.026V54.181a3.024,3.024,0,0,0,3.026,3.026H51.181a3.024,3.024,0,0,0,3.026-3.026V36.026A3.024,3.024,0,0,0,51.181,33ZM48.155,51.155h-12.1v-12.1h12.1Z" transform="translate(56.723 62.8)" fill="#a2a4ae"/>
    <path id="Trazado_16" data-name="Trazado 16" d="M29.181,44H11.026A3.024,3.024,0,0,0,8,47.026V65.181a3.024,3.024,0,0,0,3.026,3.026H29.181a3.024,3.024,0,0,0,3.026-3.026V47.026A3.024,3.024,0,0,0,29.181,44ZM26.155,62.155h-12.1v-12.1h12.1Z" transform="translate(12.155 85.084)" fill="#a2a4ae"/>
    <path id="Trazado_17" data-name="Trazado 17" d="M40.181,44H22.026A3.024,3.024,0,0,0,19,47.026V65.181a3.024,3.024,0,0,0,3.026,3.026H40.181a3.024,3.024,0,0,0,3.026-3.026V47.026A3.024,3.024,0,0,0,40.181,44ZM37.155,62.155h-12.1v-12.1h12.1Z" transform="translate(34.439 85.084)" fill="#a2a4ae"/>
    <path id="Trazado_18" data-name="Trazado 18" d="M51.181,44H33.026A3.024,3.024,0,0,0,30,47.026V65.181a3.024,3.024,0,0,0,3.026,3.026H51.181a3.024,3.024,0,0,0,3.026-3.026V47.026A3.024,3.024,0,0,0,51.181,44ZM48.155,62.155h-12.1v-12.1h12.1Z" transform="translate(56.723 85.084)" fill="#a2a4ae"/>
  </g>
</svg>
