<svg xmlns="http://www.w3.org/2000/svg" width="75" height="75" viewBox="0 0 163.247 165.391">
  <g id="user" transform="translate(-3.317)">
    <g id="Grupo_2" data-name="Grupo 2" transform="translate(3.317 62.87)">
      <g id="Grupo_1" data-name="Grupo 1">
        <path id="Trazado_3" data-name="Trazado 3" d="M59.4,205.343A44.188,44.188,0,0,1,88.111,215.7l6.876-8.219A54.773,54.773,0,0,0,59.4,194.627,56.147,56.147,0,0,0,3.317,250.71v26.612a5.358,5.358,0,0,0,5.358,5.358H84.4V271.964H14.033V250.71A45.418,45.418,0,0,1,59.4,205.343Z" transform="translate(-3.317 -194.627)" fill="#a2a4ae"/>
      </g>
    </g>
    <g id="Grupo_4" data-name="Grupo 4" transform="translate(22.607)">
      <g id="Grupo_3" data-name="Grupo 3">
        <path id="Trazado_4" data-name="Trazado 4" d="M99.825,0a36.793,36.793,0,1,0,36.793,36.793A36.835,36.835,0,0,0,99.825,0Zm0,62.87A26.077,26.077,0,1,1,125.9,36.793,26.107,26.107,0,0,1,99.825,62.87Z" transform="translate(-63.032)" fill="#a2a4ae"/>
      </g>
    </g>
    <g id="Grupo_6" data-name="Grupo 6" transform="translate(67.971 66.799)">
      <g id="Grupo_5" data-name="Grupo 5">
        <path id="Trazado_5" data-name="Trazado 5" d="M252.763,206.791a49.3,49.3,0,1,0,49.3,49.3A49.351,49.351,0,0,0,252.763,206.791Zm0,87.875a38.579,38.579,0,1,1,38.581-38.579A38.623,38.623,0,0,1,252.763,294.666Z" transform="translate(-203.467 -206.791)" fill="#a2a4ae"/>
      </g>
    </g>
    <g id="Grupo_8" data-name="Grupo 8" transform="translate(109.589 89.84)">
      <g id="Grupo_7" data-name="Grupo 7">
        <path id="Trazado_6" data-name="Trazado 6" d="M356.058,302.407H343.019V283.475a5.358,5.358,0,1,0-10.716,0v24.291a5.358,5.358,0,0,0,5.358,5.358h18.395a5.358,5.358,0,1,0,0-10.716Z" transform="translate(-332.303 -278.117)" fill="#a2a4ae"/>
      </g>
    </g>
  </g>
</svg>
