<svg id="training" xmlns="http://www.w3.org/2000/svg" width="75" height="75" viewBox="0 0 194.997 194.997">
  <path id="Trazado_19" data-name="Trazado 19" d="M191.95,0H70.077A3.044,3.044,0,0,0,67.03,3.047V60.934l-18.281-.009V57.616A24.361,24.361,0,0,0,60.937,36.568V25.9A25.775,25.775,0,0,0,54.176,8.51a2.962,2.962,0,0,0-.229-.25A25.86,25.86,0,0,0,9.14,25.9v1.511a3.528,3.528,0,0,0,.073.366,2.875,2.875,0,0,0,.119.588,3.078,3.078,0,0,0,.244.527,2.544,2.544,0,0,0,.75.871,2.658,2.658,0,0,0,.466.314,3.008,3.008,0,0,0,.579.216,3.2,3.2,0,0,0,.338.125c.168.027.311.034.478.058v6.1A24.361,24.361,0,0,0,24.375,57.616v3.327h-9.11c-.012,0-.018-.006-.03-.006A15.251,15.251,0,0,0,0,76.171V94.452a3.047,3.047,0,0,0,6.094,0V76.171a9.146,9.146,0,0,1,9.119-9.137c.009,0,.015,0,.021,0H26.181l2.133,2.133c.03.034.073.043.107.07a3.006,3.006,0,0,0,.768.509,2.426,2.426,0,0,0,.262.113,3.078,3.078,0,0,0,1.012.2h.009c.006,0,.009,0,.015,0a3,3,0,0,0,1.237-.3c.037-.015.07-.006.107-.024l4.732-2.361,4.732,2.364c.037.018.07.009.107.024a3.009,3.009,0,0,0,1.237.3c.006,0,.009,0,.015,0h.009a3.077,3.077,0,0,0,1.012-.2,2.425,2.425,0,0,0,.262-.113,3.006,3.006,0,0,0,.771-.512c.03-.027.073-.04.1-.067l2.154-2.154,23.1.012s.006,0,.009,0,.006,0,.009,0l3.035,0h0A12.2,12.2,0,0,0,85.311,54.843a3.047,3.047,0,1,1,6.094,0A18.3,18.3,0,0,1,73.124,73.124H57.89a3.044,3.044,0,0,0-3.047,3.047V94.452a3.047,3.047,0,0,0,6.094,0V79.218H67.03V94.452A3.044,3.044,0,0,0,70.077,97.5H191.95A3.044,3.044,0,0,0,195,94.452V3.047A3.044,3.044,0,0,0,191.95,0ZM52.311,16.234a19.714,19.714,0,0,1,2.157,5.859,12.514,12.514,0,0,0-4-2.114ZM35.035,6.094A19.707,19.707,0,0,1,48.079,11.03l-4.515,9.2c-1.207.353-2.456.826-3.784,1.35-5.058,2-11.944,4.637-24.484,3.141A19.807,19.807,0,0,1,35.035,6.094ZM18.281,36.547V31.136a49.491,49.491,0,0,0,23.741-3.894c5.746-2.276,7.456-2.928,12.821,3.885v5.42a18.281,18.281,0,0,1-36.562,0ZM36.562,60.912a24.25,24.25,0,0,0,6.094-.8v2.6l-.6.6-4.128-2.066c-.067-.034-.14-.027-.207-.058a3.292,3.292,0,0,0-.594-.161,2.971,2.971,0,0,0-.561-.07,3.205,3.205,0,0,0-.561.07,3.059,3.059,0,0,0-.594.161c-.067.03-.14.024-.207.058l-4.128,2.066-.606-.6v-2.6A24.111,24.111,0,0,0,36.562,60.912ZM188.9,91.4H73.124V79.218A24.4,24.4,0,0,0,97.5,54.843a9.14,9.14,0,1,0-18.281,0,6.1,6.1,0,0,1-6.094,6.094V6.094H188.9Z" fill="#a2a4ae"/>
  <path id="Trazado_20" data-name="Trazado 20" d="M10.094,43.281V28.047a3.047,3.047,0,0,0-6.094,0V43.281a3.047,3.047,0,0,0,6.094,0Z" transform="translate(8.187 51.171)" fill="#a2a4ae"/>
  <path id="Trazado_21" data-name="Trazado 21" d="M92.749,98.971c-.034,0-.058.018-.088.018H86.656V92.616A24.358,24.358,0,0,0,98.831,71.781c0-.018,0-.037,0-.058,0-.055.009-.1.009-.158V56.358c0-.012.006-.021.006-.03A12.179,12.179,0,0,0,89.7,44.57V38.047A3.044,3.044,0,0,0,86.656,35H71.421A21.356,21.356,0,0,0,50.094,56.313V71.568c0,.055.009.1.009.158,0,.021,0,.04,0,.058A24.358,24.358,0,0,0,62.281,92.619v6.374H56.276c-.034,0-.058-.018-.088-.018A12.2,12.2,0,0,0,44,111.159v9.153a3.044,3.044,0,0,0,3.047,3.047H101.89a3.044,3.044,0,0,0,3.047-3.047v-9.156A12.2,12.2,0,0,0,92.749,98.971ZM71.421,41.094H83.609v6.094a3.044,3.044,0,0,0,3.047,3.047,6.1,6.1,0,0,1,6.1,6.066c0,.006,0,.009,0,.015V70.755a21.775,21.775,0,0,1-36.562.006V56.328A15.251,15.251,0,0,1,71.421,41.094ZM60.234,82.985a28.487,28.487,0,0,0,28.47,0,18.242,18.242,0,0,1-28.47,0ZM74.468,95.912a24.25,24.25,0,0,0,6.094-.8v3.86H68.375v-3.86A24.111,24.111,0,0,0,74.468,95.912Zm-18.342,9.159c.021,0,.04.012.061.012h9.14c.037,0,.064-.021.1-.021H83.505c.04,0,.067.021.1.021h9.14c.021,0,.04-.012.061-.012a6.093,6.093,0,0,1,6.033,6.085v6.109H50.094v-6.109A6.1,6.1,0,0,1,56.126,105.071Z" transform="translate(90.06 71.639)" fill="#a2a4ae"/>
  <path id="Trazado_22" data-name="Trazado 22" d="M3.047,123.358H57.89a3.044,3.044,0,0,0,3.047-3.047v-9.156A12.2,12.2,0,0,0,48.749,98.971c-.034,0-.058.018-.088.018H42.656V92.616A24.358,24.358,0,0,0,54.831,71.781c0-.018,0-.037,0-.058,0-.055.009-.1.009-.158V59.359a24.375,24.375,0,0,0-48.749,0V71.568c0,.055.009.1.009.158,0,.021,0,.04,0,.058A24.357,24.357,0,0,0,18.281,92.616V98.99H12.276c-.034,0-.058-.018-.088-.018A12.2,12.2,0,0,0,0,111.155v9.156a3.044,3.044,0,0,0,3.047,3.047ZM30.468,41.094A18.293,18.293,0,0,1,48.749,59.362V70.755A21.2,21.2,0,0,1,30.468,80.7a21.1,21.1,0,0,1-18.281-9.942v-11.4A18.293,18.293,0,0,1,30.468,41.094ZM16.234,82.985A27.254,27.254,0,0,0,30.468,86.8,27.254,27.254,0,0,0,44.7,82.985a18.242,18.242,0,0,1-28.47,0ZM30.468,95.912a24.25,24.25,0,0,0,6.094-.8v3.86H24.375v-3.86A24.112,24.112,0,0,0,30.468,95.912Zm-18.342,9.159c.021,0,.04.012.061.012h9.14c.037,0,.064-.021.1-.021H39.505c.04,0,.067.021.1.021h9.14c.021,0,.04-.012.061-.012a6.093,6.093,0,0,1,6.033,6.085v6.109H6.094v-6.109A6.1,6.1,0,0,1,12.126,105.071Z" transform="translate(0 71.639)" fill="#a2a4ae"/>
  <path id="Trazado_23" data-name="Trazado 23" d="M40.281,100.95H34.276c-.034,0-.058-.018-.088-.018A12.2,12.2,0,0,0,22,113.116v9.156a3.044,3.044,0,0,0,3.047,3.047H79.89a3.044,3.044,0,0,0,3.047-3.047v-9.156a12.2,12.2,0,0,0-12.187-12.184c-.034,0-.058.018-.088.018H64.656V98.866a2.934,2.934,0,0,0-.195-.969H79.89a3.044,3.044,0,0,0,3.047-3.047V64.51A30.468,30.468,0,1,0,22,64.51v30.34A3.044,3.044,0,0,0,25.047,97.9H40.476a2.95,2.95,0,0,0-.195.969Zm36.562,12.166v6.109H28.094v-6.109a6.1,6.1,0,0,1,6.033-6.085c.021,0,.04.012.061.012H42.9l8.6,2.867c.006,0,.012,0,.015,0a2.985,2.985,0,0,0,1.9,0c.006,0,.009,0,.015,0l8.6-2.867h8.711c.021,0,.04-.012.061-.012A6.1,6.1,0,0,1,76.843,113.116ZM52.468,40.136A24.4,24.4,0,0,1,76.843,64.51V91.8H28.094V64.51A24.4,24.4,0,0,1,52.468,40.136ZM58.757,97.9a2.95,2.95,0,0,0-.195.969v2.913l-6.094,2.032-6.094-2.032V98.866a2.934,2.934,0,0,0-.195-.969Z" transform="translate(45.03 69.678)" fill="#a2a4ae"/>
  <path id="Trazado_24" data-name="Trazado 24" d="M43.139,58.84a9.14,9.14,0,1,0,0,18.281H61.413A9.121,9.121,0,0,0,69.99,71.03h24.95a3.044,3.044,0,0,0,3.047-3.047V49.705h12.187a3.044,3.044,0,0,0,3.047-3.047V34.468a3.044,3.044,0,0,0-3.047-3.047H79.707a3.044,3.044,0,0,0-3.047,3.047v3.05H68.351L55.323,29.7V22.281h6.091A9.14,9.14,0,0,0,61.413,4H43.138a9.14,9.14,0,1,0,0,18.281h6.091V29.7L35.476,37.954a3.046,3.046,0,0,0,0,5.222L49.229,51.43v7.41Zm0-48.746H61.413a3.047,3.047,0,1,1,0,6.094H43.139a3.047,3.047,0,1,1,0-6.094Zm0,54.84H61.413a3.047,3.047,0,1,1,0,6.094H43.139a3.047,3.047,0,1,1,0-6.094ZM82.753,37.515h24.375v6.1H82.753ZM52.276,34.977l9.311,5.588-9.311,5.588-9.311-5.588ZM55.323,51.43l13.028-7.818H76.66v3.047a3.044,3.044,0,0,0,3.047,3.047H91.894V64.937h-21.9a9.127,9.127,0,0,0-8.58-6.1H55.323Z" transform="translate(69.588 8.187)" fill="#a2a4ae"/>
</svg>
