<svg id="instagram" xmlns="http://www.w3.org/2000/svg" width="93.241" height="93.241" viewBox="0 0 93.241 93.241">
  <path id="Trazado_29" data-name="Trazado 29" d="M224.847,215.923A8.923,8.923,0,1,1,215.923,207,8.923,8.923,0,0,1,224.847,215.923Zm0,0" transform="translate(-169.303 -169.303)" fill="#b41764"/>
  <path id="Trazado_30" data-name="Trazado 30" d="M178.3,141.647a8.865,8.865,0,0,0-5.081-5.081,14.811,14.811,0,0,0-4.97-.921c-2.823-.129-3.67-.157-10.818-.157s-8,.027-10.818.156a14.821,14.821,0,0,0-4.97.922,8.869,8.869,0,0,0-5.081,5.081,14.817,14.817,0,0,0-.921,4.971c-.129,2.823-.157,3.669-.157,10.818s.028,7.994.157,10.818a14.811,14.811,0,0,0,.921,4.97,8.865,8.865,0,0,0,5.081,5.081,14.792,14.792,0,0,0,4.971.922c2.823.129,3.669.156,10.817.156s8-.027,10.818-.156a14.792,14.792,0,0,0,4.971-.922,8.865,8.865,0,0,0,5.081-5.081,14.824,14.824,0,0,0,.922-4.97c.129-2.823.156-3.67.156-10.818s-.027-8-.156-10.818A14.793,14.793,0,0,0,178.3,141.647Zm-20.869,29.535a13.747,13.747,0,1,1,13.747-13.747A13.747,13.747,0,0,1,157.432,171.182Zm14.29-24.824a3.213,3.213,0,1,1,3.213-3.213A3.213,3.213,0,0,1,171.722,146.358Zm0,0" transform="translate(-110.811 -110.815)" fill="#b41764"/>
  <path id="Trazado_31" data-name="Trazado 31" d="M46.621,0A46.621,46.621,0,1,0,93.241,46.621,46.626,46.626,0,0,0,46.621,0ZM73.229,57.658a19.641,19.641,0,0,1-1.244,6.5,13.688,13.688,0,0,1-7.829,7.829,19.655,19.655,0,0,1-6.5,1.244c-2.855.13-3.767.161-11.037.161s-8.182-.031-11.038-.161a19.655,19.655,0,0,1-6.5-1.244,13.688,13.688,0,0,1-7.829-7.829,19.636,19.636,0,0,1-1.244-6.5c-.132-2.855-.162-3.767-.162-11.038s.031-8.182.161-11.037a19.643,19.643,0,0,1,1.243-6.5,13.7,13.7,0,0,1,7.83-7.829,19.659,19.659,0,0,1,6.5-1.244c2.855-.13,3.767-.161,11.037-.161s8.182.031,11.037.162a19.663,19.663,0,0,1,6.5,1.243,13.692,13.692,0,0,1,7.829,7.83,19.639,19.639,0,0,1,1.245,6.5c.13,2.855.161,3.767.161,11.037S73.36,54.8,73.229,57.658Zm0,0" fill="#b41764"/>
</svg>
