<svg width="1440" height="786" viewBox="0 0 1440 786" fill="none" xmlns="http://www.w3.org/2000/svg">
<path fill-rule="evenodd" clip-rule="evenodd" d="M0 676.892L30 685.985C60 695.077 120 713.262 180 699.623C240 685.985 300 640.523 360 654.161C420 667.8 480 740.538 540 745.085C600 749.631 660 685.985 720 667.8C780 649.615 840 676.892 900 676.892C960 676.892 1020 649.615 1080 631.431C1140 613.246 1200 604.154 1260 631.431C1320 658.708 1380 722.354 1410 754.177L1440 786V567.785H1410C1380 567.785 1320 567.785 1260 567.785C1200 567.785 1140 567.785 1080 567.785C1020 567.785 960 567.785 900 567.785C840 567.785 780 567.785 720 567.785C660 567.785 600 567.785 540 567.785C480 567.785 420 567.785 360 567.785C300 567.785 240 567.785 180 567.785C120 567.785 60 567.785 30 567.785H0V676.892Z" fill="url(#paint0_linear)"/>
<path d="M0 -2H1440V567.785H0V-2Z" fill="url(#paint1_linear)"/>
<path fill-rule="evenodd" clip-rule="evenodd" d="M0 545.054L30 554.146C60 563.238 120 581.423 180 567.785C240 554.146 300 508.685 360 522.323C420 535.961 480 608.7 540 613.246C600 617.792 660 554.146 720 535.962C780 517.777 840 545.054 900 545.054C960 545.054 1020 517.777 1080 499.592C1140 481.408 1200 472.315 1260 499.592C1320 526.869 1380 590.515 1410 622.338L1440 654.161V435.946H1410C1380 435.946 1320 435.946 1260 435.946C1200 435.946 1140 435.946 1080 435.946C1020 435.946 960 435.946 900 435.946C840 435.946 780 435.946 720 435.946C660 435.946 600 435.946 540 435.946C480 435.946 420 435.946 360 435.946C300 435.946 240 435.946 180 435.946C120 435.946 60 435.946 30 435.946H0V545.054Z" fill="url(#paint2_linear)"/>
<defs>
<linearGradient id="paint0_linear" x1="0" y1="-2" x2="1446.63" y2="773.636" gradientUnits="userSpaceOnUse">
<stop offset="0.0001" stop-color="#4316DB"/>
<stop offset="0.0002" stop-color="#3A0CA3"/>
<stop offset="0.998889" stop-color="#7209B7"/>
</linearGradient>
<linearGradient id="paint1_linear" x1="0" y1="-2" x2="1446.63" y2="773.636" gradientUnits="userSpaceOnUse">
<stop offset="0.0001" stop-color="#4316DB"/>
<stop offset="0.0002" stop-color="#3A0CA3"/>
<stop offset="0.998889" stop-color="#7209B7"/>
</linearGradient>
<linearGradient id="paint2_linear" x1="0" y1="-2" x2="1446.63" y2="773.636" gradientUnits="userSpaceOnUse">
<stop offset="0.0001" stop-color="#4316DB"/>
<stop offset="0.0002" stop-color="#3A0CA3"/>
<stop offset="0.998889" stop-color="#7209B7"/>
</linearGradient>
</defs>
</svg>
