<svg width="223" height="253" viewBox="0 0 223 253" fill="none" xmlns="http://www.w3.org/2000/svg">
<path d="M58.3654 142.329C67.3949 152.599 3.97571 140.147 13.0022 135.855C20.3935 132.341 22.7474 119.093 22.7474 119.093L45.2721 118.177C45.2721 118.177 42.1047 123.833 58.3654 142.329Z" fill="#E4B78E"/>
<path d="M46.8577 58.3608C48.2487 58.6374 56.7992 46.5136 57.8035 47.6825C62.9579 53.6811 69.395 106.485 66.2074 110.556C63.0198 114.626 50.2703 111.986 50.2703 111.986C50.2703 111.986 43.5425 121.881 51.652 131.354C45.7102 130.763 29.6278 134.327 22.8035 120.461C21.2188 118.65 13.0221 112.399 16.2387 94.8868C16.6789 92.4905 18.6218 83.3129 26.275 75.5977C31.1851 70.6477 36.4015 68.3602 40.881 66.3965C46.9921 63.7168 43.5252 57.6992 46.8577 58.3608Z" fill="#E4B78E"/>
<path d="M61.9932 60.1609L60.6747 54.8436H50.3579L33.4101 78.6442L31.5849 95.3725L43.2354 102.854C35.5417 94.6022 39.6939 86.0832 43.2354 84.2604C47.6619 81.9817 53.393 84.2148 56.049 81.5562C58.7049 78.8976 53.8989 71.8081 54.0257 68.1367C54.1268 65.1998 59.3794 61.5958 61.9932 60.1609Z" fill="black" fill-opacity="0.3"/>
<path fill-rule="evenodd" clip-rule="evenodd" d="M-55.7622 88.7031C-46.2326 85.7476 -36.1142 91.0847 -33.1617 100.624C-33.1625 100.62 -33.1617 100.622 -33.1596 100.629C-33.0715 100.898 -30.5958 108.425 -24.6238 116.647C-18.5671 124.985 -9.6572 133.075 3.27222 136.222C12.966 138.581 18.9137 148.36 16.5568 158.063C14.1999 167.767 4.43066 173.72 -5.26314 171.361C-29.0242 165.578 -44.5165 150.755 -53.8438 137.914C-63.0991 125.172 -67.0175 113.435 -67.6705 111.326C-70.623 101.787 -65.2913 91.6585 -55.7622 88.7031Z" fill="#9275EF"/>
<path d="M93.8388 242.996C79.3284 250.878 27.5943 251.166 9.6162 241.018C9.31205 238.967 8.25262 234.73 6.8052 229.247C6.45767 227.942 6.08149 226.566 5.66866 225.117C4.32993 220.43 2.63651 215.033 0.574066 209.26C0.0310745 207.745 -5.81039 188.293 -9.03211 179.837C-17.7347 156.997 -16.2456 141.121 -7.15334 132.613C11.495 135.094 18.5366 129.181 18.5366 129.181C18.5366 129.181 24.1813 136.07 31.0136 135.846C35.1242 135.708 41.5436 136.396 51.3427 130.528C66.8085 142.916 76.6527 139.496 84.6905 147.942C90.7612 154.321 88.8163 168.547 90.9878 185.455C91.1542 186.73 91.3058 188.012 91.4651 189.309C92.0371 194.213 92.5291 199.233 92.9201 204.254C93.0212 205.572 93.1227 206.884 93.2095 208.195C93.557 213.28 93.8102 218.336 93.9475 223.234C93.9837 224.545 94.0128 225.849 94.0343 227.131C94.1286 232.753 94.0705 238.106 93.8388 242.996Z" fill="#9275EF"/>
<path d="M170.739 137.261C170.739 137.261 164.458 120.055 167.903 117.555C173.718 113.333 172.073 121.821 173.733 117.955C175.392 114.088 180.527 94.8986 184.513 96.4221C190.646 98.767 182.157 113.928 182.619 115.57C182.619 115.57 191.914 120.459 194.538 122.583C197.161 124.707 195.561 132.254 192.181 135.575C190.76 136.97 185.275 140.827 182.989 144.124C179.832 148.677 171.872 139.33 170.739 137.261Z" fill="#E4B78E"/>
<path fill-rule="evenodd" clip-rule="evenodd" d="M178.123 125.639C181.919 125.716 184.934 128.859 184.856 132.659C184.63 143.787 180.536 158.165 174.609 169.959C172.903 173.354 168.77 174.722 165.378 173.014C161.985 171.305 160.619 167.168 162.325 163.773C167.579 153.32 170.934 140.965 171.109 132.379C171.186 128.579 174.326 125.561 178.123 125.639Z" fill="#E4B78E"/>
<path d="M-1.5427 63.982C-6.79442 55.6566 -1.54269 50.9424 0.266574 49.8558C2.07584 48.7691 7.70922 48.4149 23.7871 37.5405C36.0008 29.2799 42.9657 4.21666 42.9657 4.21666C42.9657 4.21666 74.5742 44.2687 61.4203 57.4622C57.4483 61.4465 55.2283 64.3674 51.6426 66.851C50.2647 67.8048 57.4858 78.0146 53.8213 80.6442C50.6481 82.9212 44.4877 80.9638 42.6039 83.1796C40.3527 85.8277 37.7991 91.979 39.6585 96.5815C41.5183 101.184 48.3935 99.8414 50.2028 104.551C52.0121 109.259 42.8903 115.371 40.7946 118.677C38.4895 122.313 36.5619 115.107 30.6627 120.488C25.0121 125.642 19.588 122.382 19.083 122.299C14.3157 121.511 18.0437 110.702 9.25436 101.184C3.9285 95.4168 -0.0788527 97.3131 -5.02306 90.4239C-7.78604 86.5741 -9.62354 83.2943 -8.47816 75.0727C-7.33236 66.851 -2.99011 63.982 -1.5427 63.982Z" fill="#9275EF"/>
<path d="M94.3169 225.479C78.5036 229.478 62.3213 231.492 46.0741 231.492C42.1658 231.492 38.2507 231.376 34.328 231.144C25.1511 230.601 15.2488 229.145 6.28162 227.334C5.93408 226.029 5.55791 224.653 5.14551 223.204C14.5465 225.204 24.9127 226.761 34.5597 227.334C54.5922 228.529 74.61 226.602 94.0562 221.61C94.1139 221.596 94.172 221.582 94.2298 221.582C94.266 222.893 94.295 224.197 94.3169 225.479Z" fill="#3A3A3A"/>
<path d="M93.4926 206.542C78.1064 211.961 61.6853 214.772 45.4309 214.772C43.4986 214.772 41.5807 214.728 39.6556 214.649C26.513 214.105 12.0687 211.077 -0.487461 206.969C-1.03045 205.455 -1.29458 203.619 -1.88812 202.062C11.2039 206.662 26.0062 210.273 39.8148 210.845C57.7992 211.584 76.1742 208.737 93.2032 202.601C93.3047 203.92 93.4058 205.231 93.4926 206.542Z" fill="#3A3A3A"/>
<path d="M91.7478 187.656C77.7151 192.039 63.0746 194.277 48.4698 194.277C43.4616 194.277 38.4609 194.016 33.4961 193.488C18.262 191.865 5.84185 190.253 -8.0754 183.951C-9.05228 182.046 -9.13906 179.688 -10.1956 177.811C4.7129 185.215 17.3791 187.931 33.8942 189.692C53.08 191.742 72.7359 189.699 91.2705 183.802C91.4369 185.077 91.589 186.359 91.7478 187.656Z" fill="#3A3A3A"/>
<path d="M88.7459 151.892C91.1091 154.647 93.5162 157.399 96.2433 159.731L97.2455 160.634L97.7455 161.088L98.2742 161.495L100.38 163.147L100.904 163.565L101.453 163.935L102.549 164.678L103.643 165.429L104.19 165.808L104.757 166.135L107.021 167.464C107.393 167.703 107.78 167.893 108.17 168.077L109.332 168.65C110.864 169.494 112.464 170.03 114.034 170.72C117.215 171.821 120.431 172.707 123.617 173.115C126.791 173.468 129.916 173.497 132.917 173.113C134.372 172.798 135.881 172.622 137.264 172.122L138.333 171.822C138.695 171.734 139.022 171.565 139.372 171.445C140.072 171.211 140.732 170.871 141.418 170.585C142.753 169.923 144.079 169.199 145.362 168.334C146.638 167.461 147.89 166.492 149.101 165.417C151.514 163.254 153.751 160.666 155.735 157.788L155.886 157.57C160.654 150.655 170.12 148.918 177.029 153.692C183.691 158.295 185.519 167.309 181.365 174.145C178.403 178.998 174.878 183.632 170.686 187.845C168.584 189.946 166.318 191.936 163.905 193.787C161.482 195.633 158.882 197.299 156.18 198.812C154.803 199.528 153.437 200.27 152.004 200.885C151.291 201.193 150.59 201.546 149.86 201.808L147.67 202.611C144.759 203.758 141.748 204.444 138.738 205.165C132.689 206.347 126.591 206.64 120.624 206.274C114.662 205.853 108.905 204.642 103.337 203.002C100.621 202.059 97.8441 201.189 95.2555 199.999L93.2853 199.149C92.6252 198.869 91.971 198.58 91.348 198.246L87.561 196.298L86.6165 195.804L85.7096 195.263L83.8969 194.173L82.0873 193.074L81.1858 192.52L80.3214 191.922L76.8722 189.51L76.0124 188.902L75.1918 188.252L73.5561 186.946C69.1347 183.509 65.204 179.581 61.4119 175.538C54.5796 168.255 54.9394 156.806 62.2152 149.967C69.4915 143.128 80.9288 143.488 87.7611 150.772C87.9296 150.951 88.0934 151.133 88.2531 151.317L88.7459 151.892Z" fill="#9275EF"/>
</svg>
