<svg width="763" height="884" viewBox="0 0 763 884" fill="none" xmlns="http://www.w3.org/2000/svg">
<g filter="url(#filter0_f)">
<path fill-rule="evenodd" clip-rule="evenodd" d="M301.522 683.998C354.979 684.346 396.879 642.947 440.316 611.776C484.053 580.391 535.24 553.209 554.072 502.769C573.239 451.433 558.143 394.896 540.684 342.954C523.385 291.488 503.715 233.522 455.313 208.947C408.297 185.077 354.245 221.944 301.522 221.529C248.122 221.108 195.182 185.792 145.961 206.511C92.6641 228.945 55.3164 279.935 34.5348 333.91C13.0163 389.8 4.01967 454.894 29.453 509.112C53.862 561.147 115.693 578.903 164.034 609.977C208.917 638.828 248.172 683.65 301.522 683.998Z" fill="#B5179E"/>
</g>
<defs>
<filter id="filter0_f" x="-186" y="0" width="949" height="884" filterUnits="userSpaceOnUse" color-interpolation-filters="sRGB">
<feFlood flood-opacity="0" result="BackgroundImageFix"/>
<feBlend mode="normal" in="SourceGraphic" in2="BackgroundImageFix" result="shape"/>
<feGaussianBlur stdDeviation="100" result="effect1_foregroundBlur"/>
</filter>
</defs>
</svg>
