<svg width="864" height="850" viewBox="0 0 1064 684" fill="none" xmlns="http://www.w3.org/2000/svg">
<g filter="url(#filter0_f)">
<path fill-rule="evenodd" clip-rule="evenodd" d="M354.522 483.998C407.979 484.346 449.879 442.947 493.316 411.776C537.053 380.391 588.24 353.209 607.072 302.769C626.239 251.433 611.143 194.896 593.684 142.954C576.385 91.4883 556.715 33.5217 508.313 8.9472C461.297 -14.9232 407.245 21.9443 354.522 21.529C301.122 21.1084 248.182 -14.2077 198.961 6.51065C145.664 28.9445 108.316 79.9349 87.5348 133.91C66.0163 189.8 57.0197 254.894 82.453 309.112C106.862 361.147 168.693 378.903 217.034 409.977C261.917 438.828 301.172 483.65 354.522 483.998Z" fill="#B5179E"/>
</g>
<g filter="url(#filter1_f)">
<path fill-rule="evenodd" clip-rule="evenodd" d="M633.513 5.82958C682.061 10.6799 718.533 47.0727 758.008 75.7422C797.487 104.415 853.911 124.578 863.012 172.509C872.133 220.553 815.498 254.769 800.859 301.429C785.962 348.907 813.368 410.703 777.466 445.163C741.738 479.454 681.072 475.864 633.513 462.049C591.773 449.925 573.263 403.771 539.739 376.111C509.287 350.986 469.103 340.205 446.56 307.798C417.949 266.669 388.18 219.453 396.383 170.03C404.93 118.532 446.603 78.6411 489.526 48.919C531.745 19.6842 582.411 0.724172 633.513 5.82958Z" fill="#B5179E"/>
</g>
<defs>
<filter id="filter0_f" x="-133" y="-200" width="949" height="884" filterUnits="userSpaceOnUse" color-interpolation-filters="sRGB">
<feFlood flood-opacity="0" result="BackgroundImageFix"/>
<feBlend mode="normal" in="SourceGraphic" in2="BackgroundImageFix" result="shape"/>
<feGaussianBlur stdDeviation="100" result="effect1_foregroundBlur"/>
</filter>
<filter id="filter1_f" x="195" y="-195" width="869" height="867" filterUnits="userSpaceOnUse" color-interpolation-filters="sRGB">
<feFlood flood-opacity="0" result="BackgroundImageFix"/>
<feBlend mode="normal" in="SourceGraphic" in2="BackgroundImageFix" result="shape"/>
<feGaussianBlur stdDeviation="100" result="effect1_foregroundBlur"/>
</filter>
</defs>
</svg>
