<svg width="921" height="795" viewBox="0 0 921 795" fill="none" xmlns="http://www.w3.org/2000/svg">
<g filter="url(#filter0_f)">
<path fill-rule="evenodd" clip-rule="evenodd" d="M211.522 594.998C264.979 595.357 306.879 552.674 350.316 520.538C394.053 488.18 445.24 460.156 464.072 408.152C483.239 355.225 468.143 296.936 450.684 243.384C433.385 190.324 413.715 130.561 365.313 105.224C318.297 80.6144 264.245 118.624 211.522 118.196C158.122 117.763 105.182 81.352 55.9607 102.712C2.66412 125.842 -34.6836 178.412 -55.4652 234.061C-76.9837 291.682 -85.9803 358.793 -60.547 414.692C-36.138 468.34 25.6935 486.646 74.0343 518.683C118.917 548.428 158.172 594.64 211.522 594.998Z" fill="#B5179E"/>
</g>
<g filter="url(#filter1_f)">
<path fill-rule="evenodd" clip-rule="evenodd" d="M490.513 102.01C539.061 107.011 575.533 144.532 615.008 174.09C654.487 203.651 710.911 224.439 720.011 273.855C729.133 323.388 672.498 358.665 657.859 406.771C642.962 455.72 670.368 519.432 634.466 554.959C598.738 590.313 538.072 586.611 490.513 572.369C448.773 559.869 430.263 512.285 396.739 483.767C366.287 457.864 326.103 446.748 303.56 413.338C274.949 370.934 245.18 322.254 253.383 271.3C261.93 218.205 303.603 177.078 346.526 146.435C388.745 116.294 439.411 96.7466 490.513 102.01Z" fill="#B5179E"/>
</g>
<defs>
<filter id="filter0_f" x="-276" y="-104" width="949" height="899" filterUnits="userSpaceOnUse" color-interpolation-filters="sRGB">
<feFlood flood-opacity="0" result="BackgroundImageFix"/>
<feBlend mode="normal" in="SourceGraphic" in2="BackgroundImageFix" result="shape"/>
<feGaussianBlur stdDeviation="100" result="effect1_foregroundBlur"/>
</filter>
<filter id="filter1_f" x="52" y="-98.845" width="869" height="881.473" filterUnits="userSpaceOnUse" color-interpolation-filters="sRGB">
<feFlood flood-opacity="0" result="BackgroundImageFix"/>
<feBlend mode="normal" in="SourceGraphic" in2="BackgroundImageFix" result="shape"/>
<feGaussianBlur stdDeviation="100" result="effect1_foregroundBlur"/>
</filter>
</defs>
</svg>
