<svg width="36" height="36" viewBox="0 0 36 36" fill="none" xmlns="http://www.w3.org/2000/svg">
<path d="M32.01 36H9.99C7.785 36 6 34.215 6 32.01V9.99C6 7.785 7.785 6 9.99 6H31.995C34.215 6 36 7.785 36 9.99V31.995C36 34.215 34.215 36 32.01 36Z" fill="#9275EF"/>
<path d="M29.01 33H6.99C4.785 33 3 31.215 3 29.01V6.99C3 4.785 4.785 3 6.99 3H28.995C31.215 3 33 4.785 33 6.99V28.995C33 31.215 31.215 33 29.01 33Z" stroke="white" stroke-miterlimit="10" stroke-linecap="round" stroke-linejoin="round"/>
<path d="M18 26.9999V12.5249C18 9.44991 20.46 8.48991 22.92 9.23991" stroke="white" stroke-miterlimit="10" stroke-linecap="round" stroke-linejoin="round"/>
<path d="M14.25 16.5H21.75" stroke="white" stroke-miterlimit="10" stroke-linecap="round" stroke-linejoin="round"/>
</svg>
