<svg width="1444" height="864" viewBox="0 0 1444 864" fill="none" xmlns="http://www.w3.org/2000/svg">
<path fill-rule="evenodd" clip-rule="evenodd" d="M1510.01 238.546L1478.66 226.362C1447.31 214.178 1384.61 189.81 1319.22 199.109C1253.83 208.407 1185.76 251.372 1122.67 231.813C1059.59 212.255 1001.5 130.174 937.65 120.234C873.798 110.295 804.186 172.497 738.414 186.605C672.642 200.713 610.711 166.726 546.476 161.596C482.241 156.466 415.701 180.193 349.929 194.301C284.157 208.409 219.154 212.898 157.223 178.911C95.2922 144.925 36.4343 72.4622 7.00525 36.231L-22.424 -0.000282042L-40.8604 230.854L-8.74257 233.419C23.3751 235.984 87.6103 241.114 151.846 246.244C216.081 251.374 280.316 256.504 344.552 261.634C408.787 266.764 473.022 271.894 537.258 277.024C601.493 282.154 665.729 287.283 729.964 292.413C794.199 297.543 858.435 302.673 922.67 307.803C986.905 312.933 1051.14 318.063 1115.38 323.193C1179.61 328.323 1243.85 333.453 1308.08 338.583C1372.32 343.713 1436.55 348.843 1468.67 351.408L1500.79 353.973L1510.01 238.546Z" fill="url(#paint0_linear)"/>
<path d="M1452.65 956.759L-89.0001 833.64L-40.8604 230.854L1500.79 353.973L1452.65 956.759Z" fill="url(#paint1_linear)"/>
<path fill-rule="evenodd" clip-rule="evenodd" d="M1498.87 378.02L1467.52 365.836C1436.17 353.653 1373.47 329.285 1308.08 338.583C1242.69 347.882 1174.62 390.846 1111.54 371.288C1048.45 351.73 990.362 269.648 926.511 259.709C862.66 249.769 793.047 311.972 727.275 326.08C661.504 340.188 599.573 306.201 535.337 301.071C471.102 295.941 404.562 319.668 338.79 333.776C273.019 347.883 208.015 352.372 146.084 318.386C84.1535 284.399 25.2954 211.937 -4.13358 175.705L-33.5627 139.474L-51.9991 370.328L-19.8814 372.893C12.2363 375.458 76.4716 380.588 140.707 385.718C204.942 390.848 269.178 395.978 333.413 401.108C397.648 406.238 461.884 411.368 526.119 416.498C590.354 421.628 654.59 426.758 718.825 431.888C783.061 437.018 847.296 442.148 911.531 447.278C975.767 452.408 1040 457.538 1104.24 462.668C1168.47 467.798 1232.71 472.928 1296.94 478.058C1361.18 483.187 1425.41 488.317 1457.53 490.882L1489.65 493.447L1498.87 378.02Z" fill="url(#paint2_linear)"/>
<path fill-rule="evenodd" clip-rule="evenodd" d="M1444 259.415L1413.83 250.381C1383.67 241.346 1323.33 223.277 1263 236.829C1202.67 250.381 1142.33 295.554 1082 282.002C1021.67 268.45 961.333 196.173 901 191.656C840.667 187.139 780.333 250.381 720 268.45C659.667 286.519 599.333 259.415 539 259.415C478.667 259.415 418.333 286.519 358 304.588C297.667 322.658 237.333 331.692 177 304.588C116.667 277.485 56.3334 214.242 26.1668 182.621L-4.00005 151L-4.00007 367.831L26.1668 367.831C56.3334 367.831 116.667 367.831 177 367.831C237.333 367.831 297.667 367.831 358 367.831C418.333 367.831 478.667 367.831 539 367.831C599.333 367.831 659.667 367.831 720 367.831C780.333 367.831 840.667 367.831 901 367.831C961.333 367.831 1021.67 367.831 1082 367.831C1142.33 367.831 1202.67 367.831 1263 367.831C1323.33 367.831 1383.67 367.831 1413.83 367.831L1444 367.831L1444 259.415Z" fill="url(#paint3_linear)"/>
<path d="M1444 934L-4.00012 934L-4.00007 367.831L1444 367.831L1444 934Z" fill="url(#paint4_linear)"/>
<path fill-rule="evenodd" clip-rule="evenodd" d="M1444 390.417L1413.83 381.383C1383.67 372.348 1323.33 354.279 1263 367.831C1202.67 381.383 1142.33 426.556 1082 413.004C1021.67 399.452 961.333 327.175 901 322.658C840.667 318.14 780.333 381.383 720 399.452C659.667 417.521 599.333 390.417 539 390.417C478.667 390.417 418.333 417.521 358 435.59C297.667 453.66 237.333 462.694 177 435.59C116.667 408.487 56.3333 345.244 26.1667 313.623L-4.00006 282.002L-4.00008 498.833L26.1667 498.833C56.3333 498.833 116.667 498.833 177 498.833C237.333 498.833 297.667 498.833 358 498.833C418.333 498.833 478.667 498.833 539 498.833C599.333 498.833 659.667 498.833 720 498.833C780.333 498.833 840.667 498.833 901 498.833C961.333 498.833 1021.67 498.833 1082 498.833C1142.33 498.833 1202.67 498.833 1263 498.833C1323.33 498.833 1383.67 498.833 1413.83 498.833L1444 498.833L1444 390.417Z" fill="url(#paint5_linear)"/>
<defs>
<linearGradient id="paint0_linear" x1="1452.65" y1="956.759" x2="-21.0569" y2="-2.10089" gradientUnits="userSpaceOnUse">
<stop offset="0.0001" stop-color="#F52F7B"/>
<stop offset="0.0002" stop-color="#F52F7B"/>
<stop offset="0.998889" stop-color="#7209B7"/>
</linearGradient>
<linearGradient id="paint1_linear" x1="1452.65" y1="956.759" x2="-21.0569" y2="-2.10089" gradientUnits="userSpaceOnUse">
<stop offset="0.0001" stop-color="#F52F7B"/>
<stop offset="0.0002" stop-color="#F52F7B"/>
<stop offset="0.998889" stop-color="#7209B7"/>
</linearGradient>
<linearGradient id="paint2_linear" x1="1452.65" y1="956.759" x2="-21.0569" y2="-2.10089" gradientUnits="userSpaceOnUse">
<stop offset="0.0001" stop-color="#F52F7B"/>
<stop offset="0.0002" stop-color="#F52F7B"/>
<stop offset="0.998889" stop-color="#7209B7"/>
</linearGradient>
<linearGradient id="paint3_linear" x1="1444" y1="934" x2="-2.88081" y2="148.938" gradientUnits="userSpaceOnUse">
<stop offset="0.0001" stop-color="#4316DB"/>
<stop offset="0.0002" stop-color="#3A0CA3"/>
<stop offset="0.998889" stop-color="#7209B7"/>
</linearGradient>
<linearGradient id="paint4_linear" x1="1444" y1="934" x2="-2.88081" y2="148.938" gradientUnits="userSpaceOnUse">
<stop offset="0.0001" stop-color="#4316DB"/>
<stop offset="0.0002" stop-color="#3A0CA3"/>
<stop offset="0.998889" stop-color="#7209B7"/>
</linearGradient>
<linearGradient id="paint5_linear" x1="1444" y1="934" x2="-2.88081" y2="148.938" gradientUnits="userSpaceOnUse">
<stop offset="0.0001" stop-color="#4316DB"/>
<stop offset="0.0002" stop-color="#3A0CA3"/>
<stop offset="0.998889" stop-color="#7209B7"/>
</linearGradient>
</defs>
</svg>
