<svg width="1444" height="910" viewBox="0 0 1444 910" fill="none" xmlns="http://www.w3.org/2000/svg">
<path fill-rule="evenodd" clip-rule="evenodd" d="M-60.2706 789.855L-26.7552 798.144C6.76016 806.433 73.7909 823.012 139.006 804.588C204.221 786.164 267.621 732.739 334.393 744.317C401.164 755.894 471.307 832.476 537.56 834.053C603.812 835.631 666.175 762.204 731.131 738.78C796.087 715.356 863.636 741.935 929.629 738.512C995.623 735.089 1060.06 701.665 1125.02 678.241C1189.97 654.817 1255.45 641.393 1323 667.972C1390.55 694.551 1460.17 761.132 1494.98 794.422L1529.79 827.712L1517.34 587.7L1484.35 589.411C1451.35 591.123 1385.36 594.545 1319.37 597.968C1253.37 601.391 1187.38 604.814 1121.39 608.237C1055.39 611.66 989.398 615.083 923.405 618.506C857.412 621.929 791.418 625.351 725.425 628.774C659.432 632.197 593.438 635.62 527.445 639.043C461.452 642.466 395.458 645.889 329.465 649.312C263.472 652.734 197.478 656.157 131.485 659.58C65.4917 663.003 -0.501609 666.426 -33.4983 668.137L-66.4949 669.849L-60.2706 789.855Z" fill="url(#paint0_linear)"/>
<path d="M-99 43.1491L1484.84 -39L1517.34 587.7L-66.4949 669.849L-99 43.1491Z" fill="url(#paint1_linear)"/>
<path fill-rule="evenodd" clip-rule="evenodd" d="M-67.7917 644.848L-34.2763 653.137C-0.76096 661.426 66.2698 678.004 131.485 659.58C196.7 641.157 260.1 587.731 326.872 599.309C393.643 610.887 463.786 687.468 530.039 689.046C596.291 690.623 658.654 617.196 723.61 593.772C788.566 570.348 856.115 596.927 922.108 593.504C988.102 590.081 1052.54 556.657 1117.49 533.233C1182.45 509.809 1247.93 496.386 1315.47 522.964C1383.02 549.543 1452.65 616.124 1487.46 649.414L1522.27 682.705L1509.82 442.692L1476.83 444.403C1443.83 446.115 1377.84 449.538 1311.84 452.961C1245.85 456.384 1179.86 459.806 1113.86 463.229C1047.87 466.652 981.877 470.075 915.884 473.498C849.891 476.921 783.897 480.344 717.904 483.767C651.911 487.189 585.917 490.612 519.924 494.035C453.931 497.458 387.937 500.881 321.944 504.304C255.951 507.727 189.957 511.15 123.964 514.572C57.9706 517.995 -8.02273 521.418 -41.0194 523.13L-74.0161 524.841L-67.7917 644.848Z" fill="url(#paint2_linear)"/>
<path fill-rule="evenodd" clip-rule="evenodd" d="M-18 668.339L12.125 677.477C42.25 686.615 102.5 704.892 162.75 691.185C223 677.477 283.25 631.785 343.5 645.492C403.75 659.2 464 732.308 524.25 736.877C584.5 741.446 644.75 677.477 705 659.2C765.25 640.923 825.5 668.339 885.75 668.339C946 668.339 1006.25 640.923 1066.5 622.646C1126.75 604.369 1187 595.231 1247.25 622.646C1307.5 650.062 1367.75 714.031 1397.87 746.015L1428 778V558.677H1397.87C1367.75 558.677 1307.5 558.677 1247.25 558.677C1187 558.677 1126.75 558.677 1066.5 558.677C1006.25 558.677 946 558.677 885.75 558.677C825.5 558.677 765.25 558.677 705 558.677C644.75 558.677 584.5 558.677 524.25 558.677C464 558.677 403.75 558.677 343.5 558.677C283.25 558.677 223 558.677 162.75 558.677C102.5 558.677 42.25 558.677 12.125 558.677H-18V668.339Z" fill="url(#paint3_linear)"/>
<path d="M-18 -14H1428V558.677H-18V-14Z" fill="url(#paint4_linear)"/>
<path fill-rule="evenodd" clip-rule="evenodd" d="M-18 535.831L12.125 544.969C42.25 554.108 102.5 572.385 162.75 558.677C223 544.969 283.25 499.277 343.5 512.985C403.75 526.692 464 599.8 524.25 604.369C584.5 608.938 644.75 544.969 705 526.692C765.25 508.415 825.5 535.831 885.75 535.831C946 535.831 1006.25 508.415 1066.5 490.138C1126.75 471.862 1187 462.723 1247.25 490.138C1307.5 517.554 1367.75 581.523 1397.87 613.508L1428 645.492V426.169H1397.87C1367.75 426.169 1307.5 426.169 1247.25 426.169C1187 426.169 1126.75 426.169 1066.5 426.169C1006.25 426.169 946 426.169 885.75 426.169C825.5 426.169 765.25 426.169 705 426.169C644.75 426.169 584.5 426.169 524.25 426.169C464 426.169 403.75 426.169 343.5 426.169C283.25 426.169 223 426.169 162.75 426.169C102.5 426.169 42.25 426.169 12.125 426.169H-18V535.831Z" fill="url(#paint5_linear)"/>
<defs>
<linearGradient id="paint0_linear" x1="-99" y1="43.1491" x2="1536.38" y2="813.735" gradientUnits="userSpaceOnUse">
<stop stop-color="#7209B7"/>
<stop offset="1" stop-color="#F52F7B"/>
</linearGradient>
<linearGradient id="paint1_linear" x1="-99" y1="43.1491" x2="1536.38" y2="813.735" gradientUnits="userSpaceOnUse">
<stop stop-color="#7209B7"/>
<stop offset="1" stop-color="#F52F7B"/>
</linearGradient>
<linearGradient id="paint2_linear" x1="-99" y1="43.1491" x2="1536.38" y2="813.735" gradientUnits="userSpaceOnUse">
<stop stop-color="#7209B7"/>
<stop offset="1" stop-color="#F52F7B"/>
</linearGradient>
<linearGradient id="paint3_linear" x1="-18" y1="-14" x2="1435.24" y2="764.477" gradientUnits="userSpaceOnUse">
<stop offset="0.0001" stop-color="#4316DB"/>
<stop offset="0.0002" stop-color="#3A0CA3"/>
<stop offset="0.998889" stop-color="#7209B7"/>
</linearGradient>
<linearGradient id="paint4_linear" x1="-18" y1="-14" x2="1435.24" y2="764.477" gradientUnits="userSpaceOnUse">
<stop offset="0.0001" stop-color="#4316DB"/>
<stop offset="0.0002" stop-color="#3A0CA3"/>
<stop offset="0.998889" stop-color="#7209B7"/>
</linearGradient>
<linearGradient id="paint5_linear" x1="-18" y1="-14" x2="1435.24" y2="764.477" gradientUnits="userSpaceOnUse">
<stop offset="0.0001" stop-color="#4316DB"/>
<stop offset="0.0002" stop-color="#3A0CA3"/>
<stop offset="0.998889" stop-color="#7209B7"/>
</linearGradient>
</defs>
</svg>
