<svg width="1444" height="1263" viewBox="0 0 1444 1263" fill="none" xmlns="http://www.w3.org/2000/svg">
<path fill-rule="evenodd" clip-rule="evenodd" d="M-58.1634 1122.43L-26.1006 1132.59C5.96224 1142.75 70.0879 1163.07 134.749 1149.62C199.411 1136.17 264.608 1088.95 328.81 1104.44C393.012 1119.94 456.219 1198.14 520.575 1203.99C584.93 1209.84 650.433 1143.32 715.171 1125.05C779.909 1106.77 843.882 1136.74 908.313 1137.76C972.745 1138.78 1037.64 1110.86 1102.37 1092.58C1167.11 1074.31 1231.7 1065.68 1295.67 1095.65C1359.64 1125.62 1423 1194.18 1454.68 1228.46L1486.36 1262.74L1490.04 1031.18L1457.82 1030.67C1425.6 1030.16 1361.17 1029.13 1296.74 1028.11C1232.31 1027.09 1167.88 1026.07 1103.45 1025.05C1039.01 1024.02 974.582 1023 910.15 1021.98C845.718 1020.96 781.286 1019.94 716.854 1018.91C652.423 1017.89 587.991 1016.87 523.559 1015.85C459.127 1014.83 394.696 1013.8 330.264 1012.78C265.832 1011.76 201.4 1010.74 136.968 1009.72C72.5367 1008.69 8.10489 1007.67 -24.111 1007.16L-56.3269 1006.65L-58.1634 1122.43Z" fill="url(#paint0_linear)"/>
<path d="M-46.736 402.021L1499.63 426.55L1490.04 1031.18L-56.3269 1006.65L-46.736 402.021Z" fill="url(#paint1_linear)"/>
<path fill-rule="evenodd" clip-rule="evenodd" d="M-55.9443 982.529L-23.8814 992.688C8.18141 1002.85 72.3071 1023.17 136.968 1009.72C201.63 996.265 266.827 949.046 331.029 964.54C395.231 980.035 458.439 1058.24 522.794 1064.09C587.149 1069.94 652.652 1003.42 717.39 985.145C782.128 966.87 846.101 996.837 910.532 997.859C974.964 998.881 1039.86 970.958 1104.59 952.684C1169.33 934.409 1233.92 925.783 1297.89 955.75C1361.86 985.717 1425.22 1054.28 1456.9 1088.56L1488.58 1122.84L1492.25 891.278L1460.04 890.767C1427.82 890.256 1363.39 889.234 1298.96 888.212C1234.53 887.19 1170.1 886.168 1105.66 885.146C1041.23 884.123 976.801 883.101 912.369 882.079C847.937 881.057 783.505 880.035 719.074 879.013C654.642 877.991 590.21 876.969 525.778 875.947C461.346 874.925 396.915 873.903 332.483 872.881C268.051 871.859 203.619 870.837 139.188 869.815C74.7558 868.793 10.3241 867.771 -21.8918 867.26L-54.1077 866.749L-55.9443 982.529Z" fill="url(#paint2_linear)"/>
<path fill-rule="evenodd" clip-rule="evenodd" d="M-2 1041.89L28.3125 1050.98C58.625 1060.08 119.25 1078.26 179.875 1064.62C240.5 1050.98 301.125 1005.52 361.75 1019.16C422.375 1032.8 483 1105.54 543.625 1110.08C604.25 1114.63 664.875 1050.98 725.5 1032.8C786.125 1014.62 846.75 1041.89 907.375 1041.89C968 1041.89 1028.63 1014.62 1089.25 996.431C1149.88 978.246 1210.5 969.154 1271.13 996.431C1331.75 1023.71 1392.37 1087.35 1422.69 1119.18L1453 1151V932.785H1422.69C1392.37 932.785 1331.75 932.785 1271.13 932.785C1210.5 932.785 1149.88 932.785 1089.25 932.785C1028.63 932.785 968 932.785 907.375 932.785C846.75 932.785 786.125 932.785 725.5 932.785C664.875 932.785 604.25 932.785 543.625 932.785C483 932.785 422.375 932.785 361.75 932.785C301.125 932.785 240.5 932.785 179.875 932.785C119.25 932.785 58.625 932.785 28.3125 932.785H-2V1041.89Z" fill="url(#paint3_linear)"/>
<path d="M-2 363H1453V932.785H-2V363Z" fill="url(#paint4_linear)"/>
<path fill-rule="evenodd" clip-rule="evenodd" d="M-2 910.054L28.3125 919.146C58.625 928.238 119.25 946.423 179.875 932.785C240.5 919.146 301.125 873.685 361.75 887.323C422.375 900.961 483 973.7 543.625 978.246C604.25 982.792 664.875 919.146 725.5 900.962C786.125 882.777 846.75 910.054 907.375 910.054C968 910.054 1028.63 882.777 1089.25 864.592C1149.88 846.408 1210.5 837.315 1271.13 864.592C1331.75 891.869 1392.37 955.515 1422.69 987.338L1453 1019.16V800.946H1422.69C1392.37 800.946 1331.75 800.946 1271.13 800.946C1210.5 800.946 1149.88 800.946 1089.25 800.946C1028.63 800.946 968 800.946 907.375 800.946C846.75 800.946 786.125 800.946 725.5 800.946C664.875 800.946 604.25 800.946 543.625 800.946C483 800.946 422.375 800.946 361.75 800.946C301.125 800.946 240.5 800.946 179.875 800.946C119.25 800.946 58.625 800.946 28.3125 800.946H-2V910.054Z" fill="url(#paint5_linear)"/>
<path fill-rule="evenodd" clip-rule="evenodd" d="M1453 109.108L1422.69 100.016C1392.38 90.9232 1331.75 72.7386 1271.13 86.377C1210.5 100.015 1149.88 145.477 1089.25 131.839C1028.63 118.2 968 45.4616 907.375 40.9154C846.75 36.3693 786.125 100.015 725.5 118.2C664.875 136.385 604.25 109.108 543.625 109.108C483 109.108 422.375 136.385 361.75 154.569C301.125 172.754 240.5 181.846 179.875 154.569C119.25 127.292 58.6251 63.6462 28.3125 31.8231L-2.00012 -8.029e-06L-2.00014 218.215L28.3125 218.215C58.625 218.215 119.25 218.215 179.875 218.215C240.5 218.215 301.125 218.215 361.75 218.215C422.375 218.215 483 218.215 543.625 218.215C604.25 218.215 664.875 218.215 725.5 218.215C786.125 218.215 846.75 218.215 907.375 218.215C968 218.215 1028.62 218.215 1089.25 218.215C1149.88 218.215 1210.5 218.215 1271.13 218.215C1331.75 218.215 1392.38 218.215 1422.69 218.216L1453 218.216L1453 109.108Z" fill="url(#paint6_linear)"/>
<path d="M1453 788L-2.00019 788L-2.00014 218.215L1453 218.216L1453 788Z" fill="url(#paint7_linear)"/>
<path fill-rule="evenodd" clip-rule="evenodd" d="M1453 240.946L1422.69 231.854C1392.38 222.762 1331.75 204.577 1271.13 218.215C1210.5 231.854 1149.88 277.315 1089.25 263.677C1028.62 250.039 968 177.3 907.375 172.754C846.75 168.208 786.125 231.854 725.5 250.038C664.875 268.223 604.25 240.946 543.625 240.946C483 240.946 422.375 268.223 361.75 286.408C301.125 304.592 240.5 313.685 179.875 286.408C119.25 259.131 58.6249 195.485 28.3124 163.662L-2.00013 131.838L-2.00015 350.054L28.3124 350.054C58.6249 350.054 119.25 350.054 179.875 350.054C240.5 350.054 301.125 350.054 361.75 350.054C422.375 350.054 483 350.054 543.625 350.054C604.25 350.054 664.875 350.054 725.5 350.054C786.125 350.054 846.75 350.054 907.375 350.054C968 350.054 1028.62 350.054 1089.25 350.054C1149.88 350.054 1210.5 350.054 1271.13 350.054C1331.75 350.054 1392.38 350.054 1422.69 350.054L1453 350.054L1453 240.946Z" fill="url(#paint8_linear)"/>
<defs>
<linearGradient id="paint0_linear" x1="-46.736" y1="402.021" x2="1485.13" y2="1264.92" gradientUnits="userSpaceOnUse">
<stop offset="0.0001" stop-color="#F52F7B"/>
<stop offset="0.0002" stop-color="#F52F7B"/>
<stop offset="0.998889" stop-color="#7209B7"/>
</linearGradient>
<linearGradient id="paint1_linear" x1="-46.736" y1="402.021" x2="1485.13" y2="1264.92" gradientUnits="userSpaceOnUse">
<stop offset="0.0001" stop-color="#F52F7B"/>
<stop offset="0.0002" stop-color="#F52F7B"/>
<stop offset="0.998889" stop-color="#7209B7"/>
</linearGradient>
<linearGradient id="paint2_linear" x1="-46.736" y1="402.021" x2="1485.13" y2="1264.92" gradientUnits="userSpaceOnUse">
<stop offset="0.0001" stop-color="#F52F7B"/>
<stop offset="0.0002" stop-color="#F52F7B"/>
<stop offset="0.998889" stop-color="#7209B7"/>
</linearGradient>
<linearGradient id="paint3_linear" x1="-2" y1="363" x2="1452.89" y2="1151.19" gradientUnits="userSpaceOnUse">
<stop stop-color="#7209B7"/>
<stop offset="1" stop-color="#3A0CA3"/>
</linearGradient>
<linearGradient id="paint4_linear" x1="-2" y1="363" x2="1452.89" y2="1151.19" gradientUnits="userSpaceOnUse">
<stop stop-color="#7209B7"/>
<stop offset="1" stop-color="#3A0CA3"/>
</linearGradient>
<linearGradient id="paint5_linear" x1="-2" y1="363" x2="1452.89" y2="1151.19" gradientUnits="userSpaceOnUse">
<stop stop-color="#7209B7"/>
<stop offset="1" stop-color="#3A0CA3"/>
</linearGradient>
<linearGradient id="paint6_linear" x1="1453" y1="788" x2="-1.89486" y2="-0.193758" gradientUnits="userSpaceOnUse">
<stop offset="0.0001" stop-color="#4316DB"/>
<stop offset="0.0002" stop-color="#3A0CA3"/>
<stop offset="0.998889" stop-color="#7209B7"/>
</linearGradient>
<linearGradient id="paint7_linear" x1="1453" y1="788" x2="-1.89486" y2="-0.193758" gradientUnits="userSpaceOnUse">
<stop offset="0.0001" stop-color="#4316DB"/>
<stop offset="0.0002" stop-color="#3A0CA3"/>
<stop offset="0.998889" stop-color="#7209B7"/>
</linearGradient>
<linearGradient id="paint8_linear" x1="1453" y1="788" x2="-1.89486" y2="-0.193758" gradientUnits="userSpaceOnUse">
<stop offset="0.0001" stop-color="#4316DB"/>
<stop offset="0.0002" stop-color="#3A0CA3"/>
<stop offset="0.998889" stop-color="#7209B7"/>
</linearGradient>
</defs>
</svg>
