<svg width="1440" height="1151" viewBox="0 0 1440 1151" fill="none" xmlns="http://www.w3.org/2000/svg">
<path fill-rule="evenodd" clip-rule="evenodd" d="M0 1041.89L30 1050.98C60 1060.08 120 1078.26 180 1064.62C240 1050.98 300 1005.52 360 1019.16C420 1032.8 480 1105.54 540 1110.08C600 1114.63 660 1050.98 720 1032.8C780 1014.62 840 1041.89 900 1041.89C960 1041.89 1020 1014.62 1080 996.431C1140 978.246 1200 969.154 1260 996.431C1320 1023.71 1380 1087.35 1410 1119.18L1440 1151V932.785H1410C1380 932.785 1320 932.785 1260 932.785C1200 932.785 1140 932.785 1080 932.785C1020 932.785 960 932.785 900 932.785C840 932.785 780 932.785 720 932.785C660 932.785 600 932.785 540 932.785C480 932.785 420 932.785 360 932.785C300 932.785 240 932.785 180 932.785C120 932.785 60 932.785 30 932.785H0V1041.89Z" fill="url(#paint0_linear)"/>
<path d="M0 363H1440V932.785H0V363Z" fill="url(#paint1_linear)"/>
<path fill-rule="evenodd" clip-rule="evenodd" d="M0 910.054L30 919.146C60 928.238 120 946.423 180 932.785C240 919.146 300 873.685 360 887.323C420 900.961 480 973.7 540 978.246C600 982.792 660 919.146 720 900.962C780 882.777 840 910.054 900 910.054C960 910.054 1020 882.777 1080 864.592C1140 846.408 1200 837.315 1260 864.592C1320 891.869 1380 955.515 1410 987.338L1440 1019.16V800.946H1410C1380 800.946 1320 800.946 1260 800.946C1200 800.946 1140 800.946 1080 800.946C1020 800.946 960 800.946 900 800.946C840 800.946 780 800.946 720 800.946C660 800.946 600 800.946 540 800.946C480 800.946 420 800.946 360 800.946C300 800.946 240 800.946 180 800.946C120 800.946 60 800.946 30 800.946H0V910.054Z" fill="url(#paint2_linear)"/>
<path fill-rule="evenodd" clip-rule="evenodd" d="M1440 109.108L1410 100.015C1380 90.9231 1320 72.7385 1260 86.3769C1200 100.015 1140 145.477 1080 131.838C1020 118.2 960 45.4615 900 40.9153C840 36.3692 780 100.015 720 118.2C660 136.385 600 109.108 540 109.108C480 109.108 420 136.385 360 154.569C300 172.754 240 181.846 180 154.569C120 127.292 60.0002 63.6461 30.0002 31.823L7.72338e-05 -0.000102085L5.81568e-05 218.215L30.0002 218.215C60.0002 218.215 120 218.215 180 218.215C240 218.215 300 218.215 360 218.215C420 218.215 480 218.215 540 218.215C600 218.215 660 218.215 720 218.215C780 218.215 840 218.215 900 218.215C960 218.215 1020 218.215 1080 218.215C1140 218.215 1200 218.215 1260 218.215C1320 218.215 1380 218.215 1410 218.215L1440 218.215L1440 109.108Z" fill="url(#paint3_linear)"/>
<path d="M1440 788L8.34465e-06 788L5.81568e-05 218.215L1440 218.215L1440 788Z" fill="url(#paint4_linear)"/>
<path fill-rule="evenodd" clip-rule="evenodd" d="M1440 240.946L1410 231.854C1380 222.762 1320 204.577 1260 218.215C1200 231.854 1140 277.315 1080 263.677C1020 250.038 960 177.3 900 172.754C840 168.208 780 231.854 720 250.038C660 268.223 600 240.946 540 240.946C480 240.946 420 268.223 360 286.408C300 304.592 240 313.685 180 286.408C120 259.131 60.0001 195.485 30.0001 163.662L6.57081e-05 131.838L4.66311e-05 350.054L30.0001 350.054C60.0001 350.054 120 350.054 180 350.054C240 350.054 300 350.054 360 350.054C420 350.054 480 350.054 540 350.054C600 350.054 660 350.054 720 350.054C780 350.054 840 350.054 900 350.054C960 350.054 1020 350.054 1080 350.054C1140 350.054 1200 350.054 1260 350.054C1320 350.054 1380 350.054 1410 350.054L1440 350.054L1440 240.946Z" fill="url(#paint5_linear)"/>
<defs>
<linearGradient id="paint0_linear" x1="0" y1="363" x2="1446.63" y2="1138.64" gradientUnits="userSpaceOnUse">
<stop stop-color="#7209B7"/>
<stop offset="1" stop-color="#3A0CA3"/>
</linearGradient>
<linearGradient id="paint1_linear" x1="0" y1="363" x2="1446.63" y2="1138.64" gradientUnits="userSpaceOnUse">
<stop stop-color="#7209B7"/>
<stop offset="1" stop-color="#3A0CA3"/>
</linearGradient>
<linearGradient id="paint2_linear" x1="0" y1="363" x2="1446.63" y2="1138.64" gradientUnits="userSpaceOnUse">
<stop stop-color="#7209B7"/>
<stop offset="1" stop-color="#3A0CA3"/>
</linearGradient>
<linearGradient id="paint3_linear" x1="1440" y1="788" x2="-6.62898" y2="12.364" gradientUnits="userSpaceOnUse">
<stop stop-color="#C4C4C4"/>
<stop offset="0.0001" stop-color="#4316DB"/>
<stop offset="0.0002" stop-color="#3A0CA3"/>
<stop offset="0.998889" stop-color="#7209B7"/>
</linearGradient>
<linearGradient id="paint4_linear" x1="1440" y1="788" x2="-6.62898" y2="12.364" gradientUnits="userSpaceOnUse">
<stop stop-color="#C4C4C4"/>
<stop offset="0.0001" stop-color="#4316DB"/>
<stop offset="0.0002" stop-color="#3A0CA3"/>
<stop offset="0.998889" stop-color="#7209B7"/>
</linearGradient>
<linearGradient id="paint5_linear" x1="1440" y1="788" x2="-6.62898" y2="12.364" gradientUnits="userSpaceOnUse">
<stop stop-color="#C4C4C4"/>
<stop offset="0.0001" stop-color="#4316DB"/>
<stop offset="0.0002" stop-color="#3A0CA3"/>
<stop offset="0.998889" stop-color="#7209B7"/>
</linearGradient>
</defs>
</svg>
