<svg width="337" height="253" viewBox="0 0 337 253" fill="none" xmlns="http://www.w3.org/2000/svg">
    <path fill-rule="evenodd" clip-rule="evenodd" d="M43.5231 48.0135C47.2503 47.2878 50.8596 49.7238 51.5846 53.4547C54.5641 68.7856 61.358 92.9008 78.5244 117.271C80.7128 120.378 79.9705 124.672 76.8676 126.862C73.7642 129.052 69.4746 128.309 67.2867 125.203C48.6405 98.7324 41.2954 72.5924 38.0871 56.0829C37.362 52.352 39.7958 48.7392 43.5231 48.0135Z" fill="#E4B78E"/>
    <path d="M172.365 142.329C181.395 152.599 117.976 140.147 127.002 135.855C134.393 132.341 136.747 119.093 136.747 119.093L159.272 118.177C159.272 118.177 156.105 123.833 172.365 142.329Z" fill="#E4B78E"/>
    <path d="M160.858 58.3608C162.249 58.6374 170.799 46.5136 171.803 47.6825C176.958 53.6811 183.395 106.485 180.207 110.556C177.02 114.626 164.27 111.986 164.27 111.986C164.27 111.986 157.542 121.881 165.652 131.354C159.71 130.763 143.628 134.327 136.803 120.461C135.219 118.65 127.022 112.399 130.239 94.8868C130.679 92.4905 132.622 83.3129 140.275 75.5977C145.185 70.6477 150.401 68.3602 154.881 66.3965C160.992 63.7168 157.525 57.6992 160.858 58.3608Z" fill="#E4B78E"/>
    <path d="M175.993 60.1609L174.675 54.8436H164.358L147.41 78.6442L145.585 95.3725L157.235 102.854C149.542 94.6022 153.694 86.0832 157.235 84.2604C161.662 81.9817 167.393 84.2148 170.049 81.5562C172.705 78.8976 167.899 71.8081 168.026 68.1367C168.127 65.1998 173.379 61.5958 175.993 60.1609Z" fill="black" fill-opacity="0.3"/>
    <path fill-rule="evenodd" clip-rule="evenodd" d="M58.2378 88.7031C67.7674 85.7476 77.8858 91.0847 80.8383 100.624C80.8375 100.62 80.8383 100.622 80.8404 100.629C80.9285 100.898 83.4042 108.425 89.3762 116.647C95.4329 124.985 104.343 133.075 117.272 136.222C126.966 138.581 132.914 148.36 130.557 158.063C128.2 167.767 118.431 173.72 108.737 171.361C84.9758 165.578 69.4835 150.755 60.1562 137.914C50.9009 125.172 46.9825 113.435 46.3295 111.326C43.377 101.787 48.7087 91.6585 58.2378 88.7031Z" fill="#9275EF"/>
    <path d="M207.839 242.996C193.328 250.878 141.594 251.166 123.616 241.018C123.312 238.967 122.253 234.73 120.805 229.247C120.458 227.942 120.081 226.566 119.669 225.117C118.33 220.43 116.637 215.033 114.574 209.26C114.031 207.745 108.19 188.293 104.968 179.837C96.2653 156.997 97.7544 141.121 106.847 132.613C125.495 135.094 132.537 129.181 132.537 129.181C132.537 129.181 138.181 136.07 145.014 135.846C149.124 135.708 155.544 136.396 165.343 130.528C180.808 142.916 190.653 139.496 198.691 147.942C204.761 154.321 202.816 168.547 204.988 185.455C205.154 186.73 205.306 188.012 205.465 189.309C206.037 194.213 206.529 199.233 206.92 204.254C207.021 205.572 207.123 206.884 207.209 208.195C207.557 213.28 207.81 218.336 207.948 223.234C207.984 224.545 208.013 225.849 208.034 227.131C208.129 232.753 208.071 238.106 207.839 242.996Z" fill="#9275EF"/>
    <path d="M284.739 137.261C284.739 137.261 278.458 120.055 281.903 117.555C287.718 113.333 286.073 121.821 287.733 117.955C289.392 114.088 294.527 94.8986 298.513 96.4221C304.646 98.767 296.157 113.928 296.619 115.57C296.619 115.57 305.914 120.459 308.538 122.583C311.161 124.707 309.561 132.254 306.181 135.575C304.76 136.97 299.275 140.827 296.989 144.124C293.832 148.677 285.872 139.33 284.739 137.261Z" fill="#E4B78E"/>
    <path fill-rule="evenodd" clip-rule="evenodd" d="M292.123 125.639C295.919 125.716 298.934 128.859 298.856 132.659C298.63 143.787 294.536 158.165 288.609 169.959C286.903 173.354 282.77 174.722 279.378 173.014C275.985 171.305 274.619 167.168 276.325 163.773C281.579 153.32 284.934 140.965 285.109 132.379C285.186 128.579 288.326 125.561 292.123 125.639Z" fill="#E4B78E"/>
    <path d="M51.4182 52.9149C51.4182 52.9149 55.0182 31.5495 51.4068 29.2978C45.3101 25.4961 47.546 33.847 45.6197 30.1065C43.6933 26.366 37.2234 7.58556 33.3545 9.38582C27.4005 12.1564 36.9335 26.6825 36.5874 28.3525C36.5874 28.3525 27.6584 33.8835 25.1907 36.1867C22.723 38.49 24.8482 45.906 28.4541 48.9812C29.9684 50.2728 35.7115 53.7342 38.2231 56.8621C41.692 61.1825 50.4329 55.0583 51.4182 52.9149Z" fill="#E4B78E"/>
    <path d="M112.457 63.982C107.206 55.6566 112.457 50.9424 114.267 49.8558C116.076 48.7691 121.709 48.4149 137.787 37.5405C150.001 29.2799 156.966 4.21667 156.966 4.21667C156.966 4.21667 188.574 44.2687 175.42 57.4622C171.448 61.4465 169.228 64.3674 165.643 66.851C164.265 67.8048 171.486 78.0147 167.821 80.6442C164.648 82.9212 158.488 80.9638 156.604 83.1797C154.353 85.8277 151.799 91.979 153.658 96.5815C155.518 101.184 162.394 99.8414 164.203 104.551C166.012 109.259 156.89 115.371 154.795 118.677C152.49 122.313 150.562 115.107 144.663 120.488C139.012 125.642 133.588 122.382 133.083 122.299C128.316 121.511 132.044 110.702 123.254 101.184C117.929 95.4168 113.921 97.3131 108.977 90.4239C106.214 86.5741 104.376 83.2943 105.522 75.0727C106.668 66.851 111.01 63.982 112.457 63.982Z" fill="#9275EF"/>
    <path d="M208.317 225.479C192.504 229.478 176.321 231.492 160.074 231.492C156.166 231.492 152.251 231.376 148.328 231.144C139.151 230.601 129.249 229.145 120.282 227.334C119.934 226.029 119.558 224.653 119.146 223.204C128.547 225.204 138.913 226.761 148.56 227.334C168.592 228.529 188.61 226.602 208.056 221.61C208.114 221.596 208.172 221.582 208.23 221.582C208.266 222.893 208.295 224.197 208.317 225.479Z" fill="#3A3A3A"/>
    <path d="M207.493 206.542C192.106 211.961 175.685 214.772 159.431 214.772C157.499 214.772 155.581 214.728 153.656 214.649C140.513 214.105 126.069 211.077 113.513 206.969C112.97 205.455 112.705 203.619 112.112 202.062C125.204 206.662 140.006 210.273 153.815 210.845C171.799 211.584 190.174 208.737 207.203 202.601C207.305 203.92 207.406 205.231 207.493 206.542Z" fill="#3A3A3A"/>
    <path d="M205.748 187.656C191.715 192.039 177.075 194.277 162.47 194.277C157.462 194.277 152.461 194.016 147.496 193.488C132.262 191.865 119.842 190.253 105.925 183.951C104.948 182.046 104.861 179.688 103.804 177.811C118.713 185.215 131.379 187.931 147.894 189.692C167.08 191.742 186.736 189.699 205.271 183.802C205.437 185.077 205.589 186.359 205.748 187.656Z" fill="#3A3A3A"/>
    <path d="M202.746 151.892C205.109 154.647 207.516 157.399 210.243 159.731L211.246 160.634L211.746 161.088L212.274 161.495L214.38 163.147L214.904 163.565L215.453 163.935L216.549 164.678L217.643 165.429L218.19 165.808L218.757 166.135L221.021 167.464C221.393 167.703 221.78 167.893 222.17 168.077L223.332 168.65C224.864 169.494 226.464 170.03 228.034 170.72C231.215 171.821 234.431 172.707 237.617 173.115C240.791 173.468 243.916 173.497 246.917 173.113C248.372 172.798 249.881 172.621 251.264 172.122L252.333 171.822C252.695 171.734 253.022 171.565 253.372 171.445C254.072 171.211 254.732 170.871 255.418 170.585C256.753 169.923 258.079 169.199 259.362 168.334C260.638 167.461 261.89 166.492 263.101 165.417C265.514 163.254 267.751 160.666 269.735 157.788L269.886 157.57C274.654 150.655 284.12 148.918 291.029 153.692C297.691 158.295 299.519 167.309 295.365 174.145C292.403 178.998 288.878 183.632 284.686 187.845C282.584 189.946 280.318 191.936 277.905 193.787C275.482 195.633 272.882 197.299 270.18 198.812C268.803 199.528 267.437 200.27 266.004 200.885C265.291 201.193 264.59 201.546 263.86 201.808L261.67 202.611C258.759 203.758 255.748 204.444 252.738 205.165C246.689 206.347 240.591 206.64 234.624 206.274C228.662 205.853 222.905 204.642 217.337 203.002C214.621 202.059 211.844 201.189 209.256 199.999L207.285 199.149C206.625 198.869 205.971 198.58 205.348 198.246L201.561 196.298L200.617 195.804L199.71 195.263L197.897 194.173L196.087 193.074L195.186 192.52L194.321 191.922L190.872 189.51L190.012 188.902L189.192 188.252L187.556 186.946C183.135 183.508 179.204 179.581 175.412 175.538C168.58 168.255 168.939 156.806 176.215 149.967C183.491 143.128 194.929 143.488 201.761 150.772C201.93 150.951 202.093 151.133 202.253 151.317L202.746 151.892Z" fill="#9275EF"/>
</svg>
