<svg xmlns="http://www.w3.org/2000/svg" width="177.932" height="185.718" viewBox="0 0 177.932 185.718">
  <g id="accept" transform="translate(0 0.001)">
    <path id="Trazado_50" data-name="Trazado 50" d="M99.671,98.637H67.2a5.441,5.441,0,1,0,0,10.882H99.671a5.441,5.441,0,1,0,0-10.882Zm0,0" transform="translate(-39.356 -62.859)" fill="#773090"/>
    <path id="Trazado_51" data-name="Trazado 51" d="M99.671,158.641H67.2a5.441,5.441,0,0,0,0,10.882H99.671a5.441,5.441,0,1,0,0-10.882Zm0,0" transform="translate(-39.356 -101.097)" fill="#773090"/>
    <path id="Trazado_52" data-name="Trazado 52" d="M99.671,218.645H67.2a5.441,5.441,0,1,0,0,10.882H99.671a5.441,5.441,0,1,0,0-10.882Zm0,0" transform="translate(-39.356 -139.336)" fill="#773090"/>
    <path id="Trazado_53" data-name="Trazado 53" d="M99.671,278.648H67.2a5.441,5.441,0,0,0,0,10.882H99.671a5.441,5.441,0,1,0,0-10.882Zm0,0" transform="translate(-39.356 -177.574)" fill="#773090"/>
    <path id="Trazado_54" data-name="Trazado 54" d="M99.671,339.656H67.2a5.441,5.441,0,0,0,0,10.882H99.671a5.441,5.441,0,1,0,0-10.882Zm0,0" transform="translate(-39.356 -216.453)" fill="#773090"/>
    <path id="Trazado_55" data-name="Trazado 55" d="M207.1,109.519H239.57a5.441,5.441,0,0,0,0-10.882H207.1a5.441,5.441,0,1,0,0,10.882Zm0,0" transform="translate(-128.509 -62.859)" fill="#773090"/>
    <path id="Trazado_56" data-name="Trazado 56" d="M207.1,169.523H239.57a5.441,5.441,0,0,0,0-10.882H207.1a5.441,5.441,0,1,0,0,10.882Zm0,0" transform="translate(-128.509 -101.097)" fill="#773090"/>
    <path id="Trazado_57" data-name="Trazado 57" d="M228.178,224.086a5.441,5.441,0,0,0-5.441-5.441H207.1a5.441,5.441,0,1,0,0,10.882h15.64A5.441,5.441,0,0,0,228.178,224.086Zm0,0" transform="translate(-128.509 -139.336)" fill="#773090"/>
    <path id="Trazado_58" data-name="Trazado 58" d="M348.4,343.885a5.441,5.441,0,0,0-7.648.839l-14.013,17.471-8.676-6.285a5.441,5.441,0,1,0-6.385,8.812l12.87,9.325a5.438,5.438,0,0,0,7.436-1l17.257-21.51A5.44,5.44,0,0,0,348.4,343.885Zm0,0" transform="translate(-197.192 -218.385)" fill="#773090"/>
    <path id="Trazado_59" data-name="Trazado 59" d="M164.964,108.8A44.87,44.87,0,0,0,138.9,95.7V21.912A21.938,21.938,0,0,0,116.99,0H21.914A21.939,21.939,0,0,0,0,21.912V147.951a21.939,21.939,0,0,0,21.913,21.914H98.382a44.79,44.79,0,0,0,34.363,15.852,45.223,45.223,0,0,0,32.219-76.92ZM10.882,147.951V21.912A11.045,11.045,0,0,1,21.914,10.881H116.99a11.043,11.043,0,0,1,11.031,11.031V95.528a45.249,45.249,0,0,0-36.527,63.454H21.914A11.044,11.044,0,0,1,10.882,147.95Zm121.863,26.885a34.336,34.336,0,0,1,0-68.672c.179,0,.358,0,.537.006h.084a34.336,34.336,0,0,1-.621,68.665Zm0,0" transform="translate(0)" fill="#773090"/>
  </g>
</svg>
