<svg id="calendar" xmlns="http://www.w3.org/2000/svg" width="163.487" height="163.487" viewBox="0 0 163.487 163.487">
  <g id="Grupo_47" data-name="Grupo 47">
    <g id="Grupo_46" data-name="Grupo 46">
      <path id="Trazado_71" data-name="Trazado 71" d="M144.328,12.772h-7.663V0H123.892V12.772h-84.3V0H26.822V12.772H19.159A19.18,19.18,0,0,0,0,31.931v112.4a19.18,19.18,0,0,0,19.159,19.159h125.17a19.18,19.18,0,0,0,19.159-19.159V31.931A19.18,19.18,0,0,0,144.328,12.772Zm6.386,131.556a6.393,6.393,0,0,1-6.386,6.386H19.159a6.393,6.393,0,0,1-6.386-6.386V60.03H150.714Zm0-97.07H12.772V31.931a6.393,6.393,0,0,1,6.386-6.386h7.663V38.317H39.594V25.545h84.3V38.317h12.772V25.545h7.663a6.393,6.393,0,0,1,6.386,6.386Z" fill="#f89321"/>
    </g>
  </g>
  <g id="Grupo_49" data-name="Grupo 49" transform="translate(24.461 73.383)">
    <g id="Grupo_48" data-name="Grupo 48" transform="translate(0 0)">
      <rect id="Rectángulo_58" data-name="Rectángulo 58" width="12.874" height="12.874" fill="#f89321"/>
    </g>
  </g>
  <g id="Grupo_51" data-name="Grupo 51" transform="translate(49.566 73.383)">
    <g id="Grupo_50" data-name="Grupo 50" transform="translate(0 0)">
      <rect id="Rectángulo_59" data-name="Rectángulo 59" width="12.874" height="12.874" fill="#f89321"/>
    </g>
  </g>
  <g id="Grupo_53" data-name="Grupo 53" transform="translate(75.314 73.383)">
    <g id="Grupo_52" data-name="Grupo 52" transform="translate(0 0)">
      <rect id="Rectángulo_60" data-name="Rectángulo 60" width="12.874" height="12.874" fill="#f89321"/>
    </g>
  </g>
  <g id="Grupo_55" data-name="Grupo 55" transform="translate(101.063 73.383)">
    <g id="Grupo_54" data-name="Grupo 54" transform="translate(0 0)">
      <rect id="Rectángulo_61" data-name="Rectángulo 61" width="12.874" height="12.874" fill="#f89321"/>
    </g>
  </g>
  <g id="Grupo_57" data-name="Grupo 57" transform="translate(126.168 73.383)">
    <g id="Grupo_56" data-name="Grupo 56" transform="translate(0 0)">
      <rect id="Rectángulo_62" data-name="Rectángulo 62" width="12.874" height="12.874" fill="#f89321"/>
    </g>
  </g>
  <g id="Grupo_59" data-name="Grupo 59" transform="translate(24.461 99.132)">
    <g id="Grupo_58" data-name="Grupo 58" transform="translate(0 0)">
      <rect id="Rectángulo_63" data-name="Rectángulo 63" width="12.874" height="12.874" fill="#f89321"/>
    </g>
  </g>
  <g id="Grupo_61" data-name="Grupo 61" transform="translate(49.566 99.132)">
    <g id="Grupo_60" data-name="Grupo 60" transform="translate(0 0)">
      <rect id="Rectángulo_64" data-name="Rectángulo 64" width="12.874" height="12.874" fill="#f89321"/>
    </g>
  </g>
  <g id="Grupo_63" data-name="Grupo 63" transform="translate(75.314 99.132)">
    <g id="Grupo_62" data-name="Grupo 62" transform="translate(0 0)">
      <rect id="Rectángulo_65" data-name="Rectángulo 65" width="12.874" height="12.874" fill="#f89321"/>
    </g>
  </g>
  <g id="Grupo_65" data-name="Grupo 65" transform="translate(101.063 99.132)">
    <g id="Grupo_64" data-name="Grupo 64" transform="translate(0 0)">
      <rect id="Rectángulo_66" data-name="Rectángulo 66" width="12.874" height="12.874" fill="#f89321"/>
    </g>
  </g>
  <g id="Grupo_67" data-name="Grupo 67" transform="translate(24.461 124.236)">
    <g id="Grupo_66" data-name="Grupo 66" transform="translate(0 0)">
      <rect id="Rectángulo_67" data-name="Rectángulo 67" width="12.874" height="12.874" fill="#f89321"/>
    </g>
  </g>
  <g id="Grupo_69" data-name="Grupo 69" transform="translate(49.566 124.236)">
    <g id="Grupo_68" data-name="Grupo 68" transform="translate(0 0)">
      <rect id="Rectángulo_68" data-name="Rectángulo 68" width="12.874" height="12.874" fill="#f89321"/>
    </g>
  </g>
  <g id="Grupo_71" data-name="Grupo 71" transform="translate(75.314 124.236)">
    <g id="Grupo_70" data-name="Grupo 70" transform="translate(0 0)">
      <rect id="Rectángulo_69" data-name="Rectángulo 69" width="12.874" height="12.874" fill="#f89321"/>
    </g>
  </g>
  <g id="Grupo_73" data-name="Grupo 73" transform="translate(101.063 124.236)">
    <g id="Grupo_72" data-name="Grupo 72" transform="translate(0 0)">
      <rect id="Rectángulo_70" data-name="Rectángulo 70" width="12.874" height="12.874" fill="#f89321"/>
    </g>
  </g>
  <g id="Grupo_75" data-name="Grupo 75" transform="translate(126.168 99.132)">
    <g id="Grupo_74" data-name="Grupo 74" transform="translate(0 0)">
      <rect id="Rectángulo_71" data-name="Rectángulo 71" width="12.874" height="12.874" fill="#f89321"/>
    </g>
  </g>
</svg>
