<svg xmlns="http://www.w3.org/2000/svg" width="80" height="80" viewBox="0 0 196.975 172.267">
  <g id="presentation" transform="translate(0.001)">
    <path id="Trazado_25" data-name="Trazado 25" d="M178.842,0H92.306A18.154,18.154,0,0,0,74.173,18.133V73.645l-16.068-7.99c-.543-.271-1.094-.526-1.65-.768a27.4,27.4,0,1,0-37.807,1.676A36.521,36.521,0,0,0,0,98.487V117.03a18.163,18.163,0,0,0,12.362,17.192V166.48a5.771,5.771,0,0,0,5.771,5.771H55.218a5.771,5.771,0,0,0,5.771-5.771V101.642l18.475,9.236a15.832,15.832,0,0,0,21-6.62h20.691L99.244,164.507a5.771,5.771,0,0,0,10.847,3.945l23.343-64.193h4.046l23.582,64.212A5.771,5.771,0,0,0,171.9,164.49l-22.121-60.232h29.067a18.133,18.133,0,0,0,18.133-18.133V18.133A18.132,18.132,0,0,0,178.842,0ZM20.813,45.948A15.863,15.863,0,1,1,36.675,61.81,15.88,15.88,0,0,1,20.813,45.948ZM90.6,98.088c-.015.042-.03.086-.044.129a4.267,4.267,0,0,1-5.93,2.338C73.653,95.066,57.8,87.144,57.8,87.144a5.773,5.773,0,0,0-8.35,5.162v68.4H23.9V129.393a5.772,5.772,0,0,0-5.771-5.771,6.6,6.6,0,0,1-6.591-6.591V98.488A25.139,25.139,0,0,1,36.675,73.353h5.1a25.146,25.146,0,0,1,11.184,2.631S81.582,90.219,88.872,93.85A3.461,3.461,0,0,1,90.6,98.088Zm94.833-11.962a6.546,6.546,0,0,1-1.928,4.662,6.634,6.634,0,0,1-4.663,1.93H101.718c-.011-.032-.018-.063-.029-.093l14.322-28.642a5.771,5.771,0,0,0-10.323-5.162L93.473,83.248c-2.277-1.135-4.923-2.453-7.759-3.862V18.133a6.6,6.6,0,0,1,6.591-6.591h86.536a6.631,6.631,0,0,1,4.665,1.933,6.538,6.538,0,0,1,1.927,4.659Zm0,0" transform="translate(0 0)" fill="#a2a4ae"/>
    <path id="Trazado_26" data-name="Trazado 26" d="M324.648,64.266H262.837a5.771,5.771,0,0,0,0,11.542h61.812a5.771,5.771,0,0,0,0-11.542Zm0,0" transform="translate(-158.169 -39.542)" fill="#a2a4ae"/>
    <path id="Trazado_27" data-name="Trazado 27" d="M374.075,120.5H343.169a5.771,5.771,0,0,0,0,11.542h30.907a5.771,5.771,0,0,0,0-11.542Zm0,0" transform="translate(-207.596 -74.142)" fill="#a2a4ae"/>
    <path id="Trazado_28" data-name="Trazado 28" d="M374.075,176.734H343.169a5.771,5.771,0,0,0,0,11.542h30.907a5.771,5.771,0,0,0,0-11.542Zm0,0" transform="translate(-207.596 -108.742)" fill="#a2a4ae"/>
  </g>
</svg>
