<svg xmlns="http://www.w3.org/2000/svg" width="80" height="80" viewBox="0 0 174.997 174.997">
  <path id="transparency" d="M175,63.964A63.965,63.965,0,0,0,48.873,48.872a63.965,63.965,0,1,0,77.252,77.252A64.074,64.074,0,0,0,175,63.964ZM63.964,164.743A53.711,53.711,0,0,1,47.2,60.007c-.08,1.309-.126,2.628-.126,3.957a64.037,64.037,0,0,0,63.964,63.964c1.329,0,2.648-.046,3.957-.126a53.8,53.8,0,0,1-51.026,36.942Zm53.71-53.71a54.062,54.062,0,0,1-.368,6.272A53.6,53.6,0,0,1,75.72,104.4h41.545A54.125,54.125,0,0,1,117.674,111.033ZM66.627,94.143a53.555,53.555,0,0,1-6.579-13.285h48.325a53.561,53.561,0,0,1,6.577,13.285ZM57.734,70.6a53.774,53.774,0,0,1-.042-12.913A53.606,53.606,0,0,1,99.282,70.6ZM127.8,114.99c.08-1.309.126-2.628.126-3.957A64.037,64.037,0,0,0,63.964,47.069c-1.329,0-2.648.046-3.957.126A53.711,53.711,0,1,1,127.8,114.99Z" fill="#a2a4ae"/>
</svg>
